<svg width="5000" height="5000" xmlns="http://www.w3.org/2000/svg" clip-rule="evenodd" version="1.1" xml:space="preserve">
 <g>
  <title>Layer 1</title>
  <g id="Layer_x0020_1">
   <metadata fill="#5fbf00" id="CorelCorpID_0Corel-Layer"/>
   <path id="svg_1" fill-rule="nonzero" fill="#5fbf00" d="m4915.74,4459.32l-728.01,0l0,390.59l728.01,0c43.23,0 78.11,34.87 78.11,78.11c0,43.22 -34.88,78.16 -78.11,78.16l-4843.62,0c-43.23,0 -78.23,-34.94 -78.23,-78.16c0,-43.24 35,-78.11 78.23,-78.11l728.01,0l0,-390.59l-728.01,0c-43.23,0 -78.23,-34.94 -78.23,-78.18c0,-43.23 35,-78.11 78.23,-78.11l4843.62,0c43.23,0 78.11,34.88 78.11,78.11c0,43.24 -34.88,78.18 -78.11,78.18zm-2499.98,0l-1459.34,0l0,390.59l1459.34,0l0,-390.59zm1615.69,0l-1459.47,0l0,390.59l1459.47,0l0,-390.59zm-1723.43,-383.48l-2001.58,0c-43.23,0 -78.17,-34.95 -78.17,-78.17l0,-1835.85c0,-43.09 34.94,-78.11 78.17,-78.11l2001.58,0c43.24,0 78.18,35.02 78.18,78.11l0,1835.85c0,43.22 -34.94,78.17 -78.18,78.17zm-720.13,-1835.84l-561.31,0l0,375.81l248.75,-111.46c10.22,-4.42 20.98,-6.69 31.97,-6.69c10.84,0 21.69,2.27 31.85,6.69l248.74,111.46l0,-375.81zm642.02,0l-485.75,0l0,496.38c0,26.39 -13.52,51.17 -35.7,65.48c-12.92,8.42 -27.62,12.63 -42.46,12.63c-10.85,0 -21.83,-2.35 -31.91,-6.78l-326.79,-146.38l-326.92,146.38c-24.17,10.71 -52.15,8.71 -74.38,-5.85c-22.16,-14.31 -35.63,-39.09 -35.63,-65.48l0,-496.38l-485.83,0l0,1679.62l1845.37,0l0,-1679.62zm2451.51,1835.84l-2001.72,0c-43.24,0 -78.18,-34.95 -78.18,-78.17l0,-1835.85c0,-43.09 34.94,-78.11 78.18,-78.11l2001.72,0c43.09,0 78.03,35.02 78.03,78.11l0,1835.85c0,43.22 -34.94,78.17 -78.03,78.17zm-720.28,-1835.84l-561.15,0l0,375.81c244.87,-107.31 249.92,-118.15 280.44,-118.15c29.42,0 23.68,5.52 280.71,118.15l0,-375.81zm642.04,0l-485.89,0l0,496.38c0,26.39 -13.41,51.17 -35.57,65.48c-22.37,14.35 -50.34,16.56 -74.44,5.85l-326.85,-146.38l-326.72,146.38c-24.86,10.98 -52.7,8.3 -74.37,-5.85c-22.24,-14.31 -35.65,-39.09 -35.65,-65.48l0,-496.38l-485.88,0l0,1679.62l1845.37,0l0,-1679.62zm-1108.53,-312.5l-2001.64,0c-43.16,0 -78.11,-35 -78.11,-78.11l0,-1765.05c0,-43.22 34.95,-78.16 78.11,-78.16l2001.64,0c43.25,0 78.19,34.94 78.19,78.16l0,1765.05c0,43.11 -34.94,78.11 -78.19,78.11zm-756.1,-1765.05l-489.35,0l0,318.28l212.76,-95.3c20.52,-9.12 43.44,-9.12 63.8,0l212.79,95.3l0,-318.28zm678.07,0l-521.8,0l0,438.78c0,26.47 -13.41,51.17 -35.57,65.54c-22.79,14.65 -50.62,16.37 -74.45,5.74l-290.87,-130.24l-290.93,130.24c-24.12,10.63 -52.15,8.55 -74.39,-5.74c-22.16,-14.37 -35.71,-39.07 -35.71,-65.54l0,-438.78l-521.72,0l0,1608.78l1845.44,0l0,-1608.78zm-2591.22,3346.97l160.72,0l0,156.29l-160.72,0l0,-156.29zm401.6,0l160.61,0l0,156.29l-160.61,0l0,-156.29zm401.49,0l160.64,0l0,156.29l-160.64,0l0,-156.29zm1570.18,0l160.64,0l0,156.29l-160.64,0l0,-156.29zm401.57,0l160.64,0l0,156.29l-160.64,0l0,-156.29zm401.52,0l160.62,0l0,156.29l-160.62,0l0,-156.29zm-1989.72,-2155.72l160.63,0l0,156.27l-160.63,0l0,-156.27zm401.51,0l160.56,0l0,156.27l-160.56,0l0,-156.27zm401.58,0l160.61,0l0,156.27l-160.61,0l0,-156.27z" class="fil0"/>
  </g>
 </g>
</svg>