<svg width="5000" height="5000" xmlns="http://www.w3.org/2000/svg" xml:space="preserve" version="1.1" clip-rule="evenodd">
 <g>
  <title>Layer 1</title>
  <g id="Layer_x0020_1">
   <metadata fill="#5fbf00" id="CorelCorpID_0Corel-Layer"/>
   <path class="fil0" d="m4954.45,1515.31l-1077.5,1077.49l0,1726.29l523.5,0c43.2,0 78.14,34.96 78.14,78.09c0,263.25 -214.17,477.35 -477.35,477.35l-2731.45,0c-263.1,0 -477.35,-214.1 -477.35,-477.35c0,-8.8 0.21,-3570.61 0.21,-3582.14l-720.59,0c-43.23,0 -78.17,-35 -78.17,-78.22l0,-121.56c0,-262.75 213.58,-476.67 476.35,-477.27c0.54,0 0.94,-0.27 1.43,-0.27l2928.07,0c263.1,0 477.21,214.1 477.21,477.14l0,956.15l566.56,-566.64c52.49,-52.41 138.14,-52.41 190.63,0l320.31,320.39c52.54,52.54 52.54,138 0,190.55zm-4162.01,-900.05c0,-177.04 -144.08,-321.04 -321.12,-321.04c-177.12,0 -321.2,144 -321.2,321.04l0,43.55l642.32,0l0,-43.55zm3702.19,1139l-89.81,-89.83l-1810.59,1810.59l89.75,89.7c675.69,-675.56 1132.65,-1132.52 1810.65,-1810.46zm-493.39,2964.04c150.15,0 276.49,-103.47 311.43,-242.98l-2571.86,0c-15.36,93.1 -58.83,176.23 -119.99,242.98l2380.42,0zm-280.51,-4103.44c0,-176.91 -144.08,-320.91 -320.99,-320.91l-2576.38,0c77.54,84.89 125.39,197.51 125.39,321.31l0,3543.1l0,238.82c0,177.12 144,321.12 321.04,321.12c177.2,0 321.14,-144 321.14,-321.12c0,-43.13 35.08,-78.09 78.22,-78.09l2051.58,0l0,-1570.06l-981.46,981.39c-8.47,8.48 -26.02,17.76 -33.8,19.93l-560.67,160.19c-28.06,7.86 -57.21,-0.27 -76.73,-19.92c-20.07,-20.01 -27.63,-49.36 -19.85,-76.66l160.17,-560.61c2.19,-7.86 11.47,-25.39 19.95,-33.86l1492.39,-1492.26l0,-1112.37zm-1185.95,3021.65c-6.41,-6.48 -205.1,-205.09 -212.67,-212.6l-85.05,297.79l297.72,-85.19zm1669.86,-2172.24c-196.22,196.22 -1509.19,1509.1 -1810.59,1810.51l89.69,89.81l1810.65,-1810.51l-89.75,-89.81zm334.21,-334.24l-223.78,223.81c10.64,10.64 282.48,282.48 289.99,289.93l223.81,-223.73l-290.02,-290.01zm-2788.34,245.49l-488.77,0c-43.2,0 -78.14,-34.94 -78.14,-78.2l0,-488.55c0,-43.14 34.94,-78.08 78.14,-78.08l488.77,0c43.06,0 78,34.94 78,78.08l0,488.55c0,43.26 -34.94,78.2 -78,78.2zm-78.22,-488.6l-332.46,0l0,332.38l332.46,0l0,-332.38zm78.22,1757.56l-488.77,0c-43.2,0 -78.14,-34.95 -78.14,-78.09l0,-488.69c0,-43.12 34.94,-78.08 78.14,-78.08l488.77,0c43.06,0 78,34.96 78,78.08l0,488.69c0,43.14 -34.94,78.09 -78,78.09zm-78.22,-488.63l-332.46,0l0,332.4l332.46,0l0,-332.4zm78.22,1757.69l-488.77,0c-43.2,0 -78.14,-34.94 -78.14,-78.06l0,-488.69c0,-43.2 34.94,-78.22 78.14,-78.22l488.77,0c43.06,0 78,35.02 78,78.22l0,488.69c0,43.12 -34.94,78.06 -78,78.06zm-78.22,-488.68l-332.46,0l0,332.46l332.46,0l0,-332.46zm1735.58,-2449.97l-1309.02,0c-43.2,0 -78.14,-34.94 -78.14,-78.15c0,-43.06 34.94,-78.08 78.14,-78.08l1309.02,0c43.2,0 78.14,35.02 78.14,78.08c0,43.21 -34.94,78.15 -78.14,78.15zm0,312.53l-1309.02,0c-43.2,0 -78.14,-35.02 -78.14,-78.22c0,-43.07 34.94,-78.01 78.14,-78.01l1309.02,0c43.2,0 78.14,34.94 78.14,78.01c0,43.2 -34.94,78.22 -78.14,78.22zm-576.33,956.55l-732.69,0c-43.2,0 -78.14,-34.94 -78.14,-78.14c0,-43.14 34.94,-78.08 78.14,-78.08l732.69,0c43.14,0 78.08,34.94 78.08,78.08c0,43.2 -34.94,78.14 -78.08,78.14zm-312.59,312.46l-420.1,0c-43.2,0 -78.14,-34.94 -78.14,-78.15c0,-43.14 34.94,-78.08 78.14,-78.08l420.1,0c43.26,0 78.22,34.94 78.22,78.08c0,43.21 -34.96,78.15 -78.22,78.15z" fill="#5fbf00" fill-rule="nonzero" id="svg_1"/>
  </g>
 </g>

</svg>