<svg width="5000" height="2832" xmlns="http://www.w3.org/2000/svg" xml:space="preserve" version="1.1" clip-rule="evenodd">
 <g>
  <title>Layer 1</title>
  <g id="Layer_x0020_1">
   <metadata fill="#5fbf00" id="CorelCorpID_0Corel-Layer"/>
   <path class="fil0" d="m3883.56,815.59l587.47,0l0,66.16l-587.47,0l0,-66.16zm217.3,314.17c-133.05,0 -241.23,-108.48 -241.23,-241.92c0,-133.38 108.18,-241.91 241.23,-241.91c133.06,0 241.24,108.53 241.24,241.91c0,133.44 -108.18,241.92 -241.24,241.92zm0,-399.49c-86.65,0 -157.14,70.72 -157.14,157.57c0,86.92 70.49,157.62 157.14,157.62c86.66,0 157.2,-70.7 157.2,-157.62c0,-86.85 -70.54,-157.57 -157.2,-157.57zm764.9,1140.28l-359.86,0c-27.51,0 -54.01,-8.54 -76.22,-23.88l0,844.39c0,78.38 -63.39,141.17 -141.13,141.17c-79.41,0 -140.53,-68.65 -140.53,-146.89l0,-538.8c0,-13.58 -5.56,-25.95 -15.53,-35.03c-10.08,-9.18 -23.21,-13.38 -36.59,-11.91c-23.26,2.27 -42.15,25.62 -42.15,52.03l0,539.43c0,82.45 -70.63,148.74 -155.21,140.5c-70.93,-7.15 -126.49,-71.34 -126.49,-146.17l0,-1322.85c0,-92.96 75.42,-168.59 168.17,-168.59l359.61,0c43.03,0 84.55,22.42 108.35,58.56c1.02,1.46 1.95,3.06 2.74,4.74l167.83,344.22l281.75,0c71,0 132.01,53.08 138.82,120.76c7.95,79.34 -54.02,148.32 -133.56,148.32zm-5.26,-184.78l-307.94,0c-16.08,0 -30.76,-9.22 -37.83,-23.64l-177.97,-364.99c-9.64,-13 -25.28,-18.89 -36.93,-18.89l-359.61,0c-46.36,0 -84.08,37.86 -84.08,84.29l0,1322.85c0,32.09 22.33,59.44 50.77,62.3c34.58,3.61 62.75,-23.73 62.75,-56.63l0,-539.43c0,-69.61 51.79,-129.3 117.82,-135.95c4.42,-0.47 8.84,-0.67 13.21,-0.67c32.48,0 64.02,12.03 88.17,33.95c27.47,24.89 43.2,60.44 43.2,97.58l0,538.8c0,32.1 22.29,59.49 50.82,62.35c33.69,3.57 62.71,-22.98 62.71,-56.63l0,-960.28c0,-18.25 11.7,-34.37 28.99,-40.09c17.24,-5.5 36.21,0.42 46.95,15.1l43.99,60.02c9.38,12.8 24.48,20.49 40.38,20.49l359.86,0c29.53,0 52.96,-25.4 49.89,-55.65c-2.57,-25.11 -26.8,-44.88 -55.15,-44.88zm-1346.81,377.48c-28.48,0 -475.54,0.17 -480.88,0.17c-26.67,137.09 -147.19,240.99 -291.81,240.99c-144.57,0 -265.09,-103.9 -291.8,-240.99l-1289.23,0c-26.63,137.09 -147.14,240.99 -291.72,240.99c-144.57,0 -265.17,-103.9 -291.79,-240.99l-214.32,0c-62.47,0 -113.33,-50.86 -113.33,-113.44l0,-340.47l-135.44,0c-62.55,0 -113.37,-50.94 -113.37,-113.53l0,-1382.54c0,-62.5 50.82,-113.44 113.37,-113.44l2454.83,0l12.28,354.27l0,156.72l619.57,0c15.02,0 29.44,5.98 40.09,16.66l370.29,370.76c10.69,10.63 16.61,25.07 16.61,40.12l0,1011.2c0,62.58 -50.8,113.52 -113.35,113.52zm-772.69,127.62c101.59,0 184.25,-82.69 184.25,-184.4c0,-101.67 -82.66,-184.41 -184.25,-184.41c-101.54,0 -184.15,82.74 -184.15,184.41c0,101.71 82.61,184.4 184.15,184.4zm-1872.75,0c101.55,0 184.17,-82.69 184.17,-184.4c0,-101.67 -82.62,-184.41 -184.17,-184.41c-101.57,0 -184.24,82.74 -184.24,184.41c0,101.71 82.67,184.4 184.24,184.4zm1279.02,-2077.43l-2033.9,0l0,1382.54l2353.75,0l1.47,-1350.65c-126.61,-39.92 -172.55,-14.38 -321.32,-31.89zm-1762.97,1496.07l-22.16,0l0,340.47l214.23,0c26.5,-137.31 147.11,-241.46 291.88,-241.46c144.71,0 265.31,104.15 291.8,241.46l1289.15,0c26.46,-137.31 147.06,-241.46 291.8,-241.46c144.71,0 265.39,104.15 291.9,241.46l223.43,0c-137.88,-218.11 -192.78,-304.3 -195.04,-308.89c-9.42,-19.39 -29.46,-31.92 -50.91,-31.92c-2025.77,0.2 -2520.96,0.2 -2621.78,0.25l-4.3,0.09zm3129.39,-0.34l-56.7,0c-31.3,0 -56.63,-25.32 -56.63,-56.71c0,-31.42 25.33,-56.74 56.63,-56.74l56.7,0l0,-533.67l-337.07,-337.57l-595.89,0l0,871.24l429.65,0c63.32,0 122.28,36.22 151.18,92.45l228.83,361.56l123.3,0l0,-340.56zm-170.03,-283.69l-592.89,0c-31.3,0 -56.63,-25.4 -56.63,-56.78l0,-473.98c0,-31.38 25.33,-56.7 56.63,-56.7l355.4,0c15.01,0 29.44,5.93 40.04,16.61l237.49,237.8c10.65,10.68 16.58,25.11 16.58,40.17l0,236.1c0,31.38 -25.33,56.78 -56.62,56.78zm-56.66,-269.42l-204.31,-204.6l-275.23,0l0,360.5l479.54,0l0,-155.9zm-517.64,1007.19l-56.7,0c-31.3,0 -56.63,-25.41 -56.63,-56.78c0,-31.35 25.33,-56.74 56.63,-56.74l56.7,0c31.3,0 56.69,25.39 56.69,56.74c0,31.37 -25.39,56.78 -56.69,56.78zm-1872.75,0l-56.71,0c-31.29,0 -56.66,-25.41 -56.66,-56.78c0,-31.35 25.37,-56.74 56.66,-56.74l56.71,0c31.3,0 56.61,25.39 56.61,56.74c0,31.37 -25.31,56.78 -56.61,56.78zm-456.53,-758.21c-31.3,0 -56.71,-25.41 -56.71,-56.74l0,-892.32c0,-31.33 25.41,-56.74 56.71,-56.74c31.3,0 56.62,25.41 56.62,56.74l0,892.32c0,31.33 -25.32,56.74 -56.62,56.74zm566.78,5.18c-31.3,0 -56.7,-25.36 -56.7,-56.71l0,-892.3c0,-31.34 25.4,-56.75 56.7,-56.75c31.25,0 56.66,25.41 56.66,56.75l0,892.3c0,31.35 -25.41,56.71 -56.66,56.71zm566.77,5.26c-31.34,0 -56.75,-25.33 -56.75,-56.75l0,-892.23c0,-31.38 25.41,-56.78 56.75,-56.78c31.3,0 56.62,25.4 56.62,56.78l0,892.23c0,31.42 -25.32,56.75 -56.62,56.75zm566.78,-15.69c-31.3,0 -56.71,-25.41 -56.71,-56.79l0,-892.27c0,-31.38 25.41,-56.7 56.71,-56.7c31.29,0 56.66,25.32 56.66,56.7l0,892.27c0,31.38 -25.37,56.79 -56.66,56.79zm-1545.57,1270.01l-283.39,0c-31.3,0 -56.71,-25.41 -56.71,-56.8c0,-31.33 25.41,-56.74 56.71,-56.74l283.39,0c31.29,0 56.65,25.41 56.65,56.74c0,31.39 -25.36,56.8 -56.65,56.8zm680.1,0l-283.35,0c-31.3,0 -56.71,-25.41 -56.71,-56.8c0,-31.33 25.41,-56.74 56.71,-56.74l283.35,0c31.33,0 56.7,25.41 56.7,56.74c0,31.39 -25.37,56.8 -56.7,56.8zm680.13,0l-283.38,0c-31.3,0 -56.66,-25.41 -56.66,-56.8c0,-31.33 25.36,-56.74 56.66,-56.74l283.38,0c31.3,0 56.71,25.41 56.71,56.74c0,31.39 -25.41,56.8 -56.71,56.8zm680.14,0l-283.39,0c-31.29,0 -56.66,-25.41 -56.66,-56.8c0,-31.33 25.37,-56.74 56.66,-56.74l283.39,0c31.3,0 56.67,25.41 56.67,56.74c0,31.39 -25.37,56.8 -56.67,56.8zm680.1,0l-283.39,0c-31.34,0 -56.65,-25.41 -56.65,-56.8c0,-31.33 25.31,-56.74 56.65,-56.74l283.39,0c31.3,0 56.71,25.41 56.71,56.74c0,31.39 -25.41,56.8 -56.71,56.8z" fill="#5fbf00" fill-rule="nonzero" id="svg_1"/>
  </g>
 </g>

</svg>