<?xml version="1.0" encoding="UTF-8"?>
<!DOCTYPE svg PUBLIC "-//W3C//DTD SVG 1.1//EN" "http://www.w3.org/Graphics/SVG/1.1/DTD/svg11.dtd">
<!-- Creator: CorelDRAW 2021 (64-Bit) -->
<svg xmlns="http://www.w3.org/2000/svg" xml:space="preserve" width="50mm" height="50mm" version="1.1" style="shape-rendering:geometricPrecision; text-rendering:geometricPrecision; image-rendering:optimizeQuality; fill-rule:evenodd; clip-rule:evenodd"
viewBox="0 0 5000 5000"
 xmlns:xlink="http://www.w3.org/1999/xlink"
 xmlns:xodm="http://www.corel.com/coreldraw/odm/2003">
 <defs>
  <style type="text/css">
   <![CDATA[
    .fil0 {fill:black;fill-rule:nonzero}
   ]]>
  </style>
 </defs>
 <g id="Layer_x0020_1">
  <metadata id="CorelCorpID_0Corel-Layer"/>
  <g id="_2369061560448">
   <path class="fil0" d="M2983.07 3875.25c0,-118.4 95.66,-214.72 214.06,-214.72 118.39,0 215,96.32 215,214.72 0,118.3 -96.61,214.62 -215,214.62 -118.4,0 -214.06,-96.32 -214.06,-214.62zm578.71 0c0,-201.08 -162.91,-364.56 -364.65,-364.56 -200.8,0 -364.65,163.48 -364.65,364.56 0,175.32 125.01,322.13 289.82,356.61l0 371.27c0,41.4 34.1,75.02 74.83,75.02 41.67,0 75.77,-33.62 75.77,-75.02l0 -371.27c164.8,-34.48 288.88,-181.29 288.88,-356.61z"/>
   <g>
    <path class="fil0" d="M1849.33 749.37c171.43,-169.54 397.8,-263.78 637.44,-265.4 2.83,0 4.73,0 6.63,0 244.36,0 474.52,94.53 646.89,266.81 175.23,173.62 271.84,405.2 271.84,651.84 0,254.5 -101.34,491.19 -286.99,666.51 -246.25,233.66 -504.83,571.51 -629.85,930.01 -144.92,-428.59 -471.68,-776.29 -633.65,-929.73 -187.53,-177.68 -291.72,-428.02 -286.04,-686.49 4.74,-239.16 102.3,-464.2 273.73,-633.55zm-90.93 1428.87c595.76,564.31 660.17,1055.7 660.17,1240.77l0 0.94c0,41.21 33.15,74.83 74.83,74.83 41.67,0 74.82,-33.62 74.82,-74.83 0,-297.78 173.32,-780.45 660.16,-1241.99 215.01,-203.74 333.4,-479.07 333.4,-775.34 0,-286.89 -111.76,-556.17 -315.4,-758.1 -201.74,-200.33 -468.84,-310.39 -752.98,-310.39 -1.9,0 -4.74,0 -7.59,0 -278.46,1.9 -541.76,111.39 -741.61,308.49 -199.85,196.82 -312.56,458.7 -319.19,737.08 -5.69,300.81 115.55,591.68 333.39,798.54z"/>
    <path class="fil0" d="M856.71 3586.65c0,156.76 277.52,225.81 519.99,268.43 298.36,52.76 695.21,81.74 1116.7,81.74 53.98,0 75.76,-0.47 119.34,-1.43l22.72 -0.37c40.74,-0.76 73.89,-35.05 72.93,-76.44 -0.94,-40.82 -34.09,-73.4 -74.82,-73.4l-1.89 0 -21.78 0.47c-42.63,0.86 -64.41,1.33 -116.5,1.33 -384.55,0 -752.99,-25.01 -1037.14,-70.38 -321.08,-51.42 -416.75,-108.82 -442.32,-130.42 61.57,-54.18 391.18,-161.58 1116.69,-192.36 40.74,-1.71 72.93,-36.66 71.04,-78.05 -0.95,-41.2 -35.99,-73.5 -77.67,-71.6 -339.08,14.39 -646.9,49.06 -867.58,97.74 -276.58,60.9 -399.71,136.39 -399.71,244.74z"/>
    <path class="fil0" d="M2764.28 3315.01c-1.89,41.49 30.31,76.44 71.98,78.04 738.78,29.46 1075.02,138.29 1137.53,193.13 -17.04,14.11 -65.35,44.52 -192.27,78.52l-1.9 0.76 -70.08 21.02c-39.79,12.03 -62.52,53.71 -50.2,93.3 9.47,32.48 39.78,53.51 71.98,53.51 6.63,0 14.21,-1.13 20.84,-3.22l69.14 -20.84c133.55,-35.89 308.77,-97.74 308.77,-222.58 0,-109.3 -125.02,-184.98 -406.33,-246.35 -224.47,-48.87 -537.98,-83.35 -881.79,-97.08 -41.68,-1.61 -76.73,30.59 -77.67,71.79z"/>
    <path class="fil0" d="M2493.4 1208.83c108.91,0 197,88.18 197,196.82 0,108.35 -88.09,196.82 -197,196.82 -107.98,0 -197.02,-88.47 -197.02,-196.82 0,-108.64 89.04,-196.82 197.02,-196.82zm0 543.48c191.32,0 346.65,-155.62 346.65,-346.66 0,-191.23 -155.33,-346.66 -346.65,-346.66 -191.33,0 -346.66,155.43 -346.66,346.66 0,191.04 155.33,346.66 346.66,346.66z"/>
    <path class="fil0" d="M595.31 2626.05c118.38,0 214.05,96.14 214.05,214.53 0,118.3 -95.67,214.63 -214.05,214.63 -118.4,0 -215.01,-96.33 -215.01,-214.63 0,-118.39 96.61,-214.53 215.01,-214.53zm-75.78 571.32l0 371.29c0,41.2 34.1,74.73 75.78,74.73 40.72,0 74.82,-33.53 74.82,-74.73l0 -371.29c164.8,-34.75 288.88,-181.56 288.88,-356.79 0,-201.08 -162.91,-364.56 -363.7,-364.56 -201.75,0 -364.66,163.48 -364.66,364.56 0,175.23 124.08,322.04 288.88,356.79z"/>
    <path class="fil0" d="M4435.06 2655.99c118.39,0 214.05,96.32 214.05,214.62 0,118.39 -95.66,214.72 -214.05,214.72 -119.35,0 -215.01,-96.33 -215.01,-214.72 0,-118.3 95.66,-214.62 215.01,-214.62zm-75.78 571.32l0 371.18c0,41.39 34.1,75.02 75.78,75.02 40.72,0 74.82,-33.63 74.82,-75.02l0 -371.18c164.8,-34.77 289.83,-181.38 289.83,-356.7 0,-200.99 -163.86,-364.46 -364.65,-364.46 -201.75,0 -364.66,163.47 -364.66,364.46 0,175.32 124.08,321.93 288.88,356.7z"/>
    <path class="fil0" d="M2904.45 4300.15c-134.49,6.06 -272.77,8.8 -411.05,8.8 -1455.78,0 -2349.89,-310.47 -2349.89,-533.05 0,-52.86 55.88,-114.42 156.28,-173.71 35.99,-21.03 47.36,-67.15 26.52,-102.86 -20.84,-35.62 -67.25,-47.45 -102.29,-26.33 -153.44,89.78 -230.16,191.7 -230.16,302.9 0,256.39 416.75,414.94 766.25,502.74 464.1,116.22 1079.75,180.34 1733.29,180.34 140.17,0 281.3,-2.93 417.68,-8.99 41.68,-1.81 73.89,-36.85 71.99,-78.05 -1.89,-41.49 -36.94,-73.6 -78.62,-71.79z"/>
    <path class="fil0" d="M4822.44 3511.17c-33.15,-23.87 -80.51,-15.72 -104.19,17.8 -23.68,33.81 -15.16,80.6 17.99,104.47 49.26,34.76 107.04,87.52 107.04,142.46 0,87.04 -124.08,185.73 -341.92,270.41 -247.21,96.42 -601.45,170.96 -1023.88,215.66 -41.67,4.36 -71.03,41.2 -66.3,82.41 3.79,38.45 35.99,66.96 73.88,66.96 2.84,0 5.68,0 8.53,-0.19 434.74,-46.13 802.23,-124.17 1062.7,-225.14 289.83,-113.27 437.58,-251.28 437.58,-410.11 0,-95.67 -57.77,-184.61 -171.43,-264.73z"/>
   </g>
  </g>
 </g>
</svg>
