<?xml version="1.0" encoding="UTF-8"?>
<!DOCTYPE svg PUBLIC "-//W3C//DTD SVG 1.1//EN" "http://www.w3.org/Graphics/SVG/1.1/DTD/svg11.dtd">
<!-- Creator: CorelDRAW 2021 (64-Bit) -->
<svg xmlns="http://www.w3.org/2000/svg" xml:space="preserve" width="50mm" height="50mm" version="1.1" style="shape-rendering:geometricPrecision; text-rendering:geometricPrecision; image-rendering:optimizeQuality; fill-rule:evenodd; clip-rule:evenodd"
viewBox="0 0 5000 5000"
 xmlns:xlink="http://www.w3.org/1999/xlink"
 xmlns:xodm="http://www.corel.com/coreldraw/odm/2003">
 <defs>
  <style type="text/css">
   <![CDATA[
    .fil0 {fill:black;fill-rule:nonzero}
   ]]>
  </style>
 </defs>
 <g id="Layer_x0020_1">
  <metadata id="CorelCorpID_0Corel-Layer"/>
  <path class="fil0" d="M3514.68 3045.56c0,-42.37 32.31,-76.74 72.26,-76.74l691.91 0c39.91,0 72.26,34.37 72.26,76.74 0,42.44 -32.35,76.77 -72.26,76.77l-691.91 0c-39.95,0 -72.26,-34.33 -72.26,-76.77zm-3376.27 182.03c0,73.26 55.88,132.66 124.87,132.66l55.94 0c-0.06,-2.52 -0.21,-5.08 -0.21,-7.63 0,-237.01 181.56,-429.84 404.69,-429.84 223.12,0 404.62,192.83 404.62,429.84 0,2.55 -0.12,5.11 -0.18,7.63l267.55 0 0 -1588.81 -739.86 0c-52.24,0 -100.75,28.52 -128.49,75.53l-357.43 604.87c-19.61,33.09 -30.26,71.2 -31.35,110.21l664.62 0 0 -527.98c0,-41.87 30.85,-77.24 70.23,-78.39 40.82,-1.15 74.25,33.62 74.25,76.74l0 606.37c0,42.37 -32.31,76.74 -72.29,76.74l-736.96 0 0 512.06zm325.36 137.98c6.23,141.75 114.29,256.53 247.72,263.04 153.02,7.5 279.1,-126.4 272.04,-288.97 -6.14,-141.75 -114.2,-256.56 -247.69,-263.04 -153.02,-7.5 -279.04,126.4 -272.07,288.97zm2211.18 0c6.13,141.75 114.22,256.53 247.65,263.04 153.05,7.5 279.14,-126.4 272.04,-288.97 -6.14,-141.75 -114.17,-256.56 -247.63,-263.04 -153.01,-7.5 -279.1,126.4 -272.06,288.97zm-2627.48 -995.36l357.46 -604.87c54.51,-92.28 148.35,-147.41 250.9,-147.41l739.98 0c0.66,-62.11 14.91,-120.83 39.66,-173.01 63.02,-132.87 192.84,-215.06 332.9,-215.06l1853.65 0c106.01,14.7 198.07,76.84 256.75,165.66 36.11,54.6 16.38,110.36 -45.55,121.51 -27.95,5.07 -55.72,-7.51 -71.45,-31.7 -41.15,-63.6 -110.14,-105.32 -188.31,-105.32l-1804.81 0c-126.15,0 -228.45,108.66 -228.45,242.71l0 1737.53 990.14 0c-0.04,-2.52 -0.16,-5.08 -0.16,-7.63 0,-237.01 181.5,-429.84 404.63,-429.84 223.12,0 404.65,192.83 404.65,429.84 0,2.55 -0.15,5.11 -0.18,7.63l234.18 0c59.4,0 113.44,-24.1 154.07,-63.54 13.57,-13.17 31.04,-20.89 49.41,-20.89 65.59,0 97.38,85.64 49.19,132.87 -66.47,65.19 -155.23,105.1 -252.67,105.1l-263.63 0c-60.15,157.34 -205.54,268.61 -375.02,268.61 -169.49,0 -314.84,-111.27 -374.99,-268.61l-1461.14 0c-60.14,157.34 -205.53,268.61 -374.98,268.61 -169.52,0 -314.88,-111.27 -375.02,-268.61l-85.4 0c-148.78,0 -269.42,-128.14 -269.42,-286.2l0 -659.38c0,-70.14 18.59,-138.6 53.61,-198zm3908.6 -545l-690.17 0c-28.33,0 -52.89,-17.35 -64.76,-42.69 -4.82,-10.3 -7.53,-21.82 -7.53,-34.12 0,-12.23 2.71,-23.75 7.53,-34.06 11.87,-25.31 36.43,-42.68 64.76,-42.68l690.17 0c28.3,0 52.86,17.37 64.69,42.62 4.8,10.27 7.57,21.89 7.57,34.12 0,12.3 -2.77,23.94 -7.57,34.19 -11.83,25.27 -36.39,42.62 -64.69,42.62zm842.69 711.24l122.85 0c39.91,0 72.26,34.37 72.26,76.75 0,42.37 -32.35,76.77 -72.26,76.77l-122.85 0c-39.91,0 -72.26,-34.4 -72.26,-76.77 0,-42.38 32.35,-76.75 72.26,-76.75zm-1569.01 76.75c0,-42.38 32.38,-76.75 72.26,-76.75l1120.98 0c39.92,0 72.29,34.37 72.29,76.75 0,42.37 -32.37,76.77 -72.29,76.77l-1120.98 0c-39.88,0 -72.26,-34.4 -72.26,-76.77zm1207.69 -787.99l-202.3 0c-39.91,0 -72.26,-34.37 -72.26,-76.81 0,-42.34 32.35,-76.74 72.26,-76.74l202.3 0c39.91,0 72.29,34.4 72.29,76.74 0,42.44 -32.38,76.81 -72.29,76.81zm-172.57 278.85c39.91,0 72.23,34.37 72.23,76.8 0,42.34 -32.32,76.71 -72.23,76.71l-657.54 0c-39.98,0 -72.29,-34.37 -72.29,-76.71 0,-42.43 32.31,-76.8 72.29,-76.8l657.54 0z"/>
 </g>
</svg>
