<?xml version="1.0" encoding="UTF-8"?>
<!DOCTYPE svg PUBLIC "-//W3C//DTD SVG 1.1//EN" "http://www.w3.org/Graphics/SVG/1.1/DTD/svg11.dtd">
<!-- Creator: CorelDRAW 2021 (64-Bit) -->
<svg xmlns="http://www.w3.org/2000/svg" xml:space="preserve" width="50mm" height="50mm" version="1.1" style="shape-rendering:geometricPrecision; text-rendering:geometricPrecision; image-rendering:optimizeQuality; fill-rule:evenodd; clip-rule:evenodd"
viewBox="0 0 5000 5000"
 xmlns:xlink="http://www.w3.org/1999/xlink"
 xmlns:xodm="http://www.corel.com/coreldraw/odm/2003">
 <defs>
  <style type="text/css">
   <![CDATA[
    .fil0 {fill:black}
   ]]>
  </style>
 </defs>
 <g id="Layer_x0020_1">
  <metadata id="CorelCorpID_0Corel-Layer"/>
  <path class="fil0" d="M3205.73 2549.68c2.52,29.75 4.36,59.59 6.39,89.33 7.37,106.1 11.73,252.89 34.3,358.01l152.02 94.08c282.24,59.59 597.23,162.29 829.48,337.57 186.32,140.49 317.8,327.97 317.8,567.68l0 676.49c0,88.84 -35.27,172.65 -98.05,235.34 -62.69,62.59 -146.6,97.96 -235.35,97.96l-3436.4 0c-88.76,0 -172.66,-35.37 -235.35,-97.96 -62.79,-62.59 -98.54,-146.4 -98.54,-235.34l0 -676.49c0,-239.32 132.35,-425.83 318.48,-565.65 232.73,-174.88 548.59,-277.59 831.22,-336.79l152.89 -100.47c21.42,-104.06 23.84,-253.95 28.97,-358.98 1.94,-29.84 3.59,-59.49 5.33,-89.14 -24.32,-26.64 -47.47,-54.35 -69.66,-82.74 -106.19,-135.26 -191.75,-289.9 -250.46,-451.61 -56.01,-154.44 -90.11,-318.77 -90.11,-483.48l0 -7.66c0,-4.36 0.48,-8.33 1.26,-12.4 -1.16,-18.02 -1.26,-36.04 -1.26,-54.16 0,-71.41 -1.55,-142.72 -2.91,-214.03 -16.57,-883.54 126.83,-1233.12 1128.48,-1233.12 1001.65,0 1144.76,349.68 1128.19,1233.12 -1.35,71.31 -2.71,142.62 -2.71,214.03 0,10.85 0,21.7 0,32.94l-0.97 21.42c0.78,1.45 0.97,6.78 0.97,12.2l0 7.66c0,36.53 -2.23,72.96 -5.04,108.13l0 1.45c-11.34,129.16 -41.18,254.63 -85.07,374.77 -58.91,161.33 -144.66,315.57 -250.46,450.74 -23.45,29.84 -48.06,58.91 -73.44,87.1zm241.06 -914.06l-57.55 -244.07c-12.79,-48.64 -21.22,-98.44 -25.1,-148.72 -4.16,-43.8 -5.04,-88.17 -6.39,-132.45 -1.36,-46.22 -1.36,-95.34 -9.79,-140.88 -6.59,-35.56 -18.31,-68.79 -43.21,-100.86l-1.16 -2.81c-31.01,-36.82 -72.96,-50.1 -124.31,-49.61 -76.16,0.77 -166.17,26.55 -239.81,46.02 -148.24,39.24 -290.57,74.03 -445.21,74.03 -152.79,0 -293.96,-33.92 -447.92,-74.32 -73.06,-19.09 -162.1,-44.96 -236.61,-45.73 -52.41,-0.58 -94.85,12.79 -128.18,55.13 -23.06,29.16 -34.59,62.01 -41.28,98.15 -8.43,45.54 -9.11,94.18 -9.78,140.39 -0.68,44.38 -1.75,88.85 -5.62,133.03 -4.46,50.09 -12.31,99.02 -25,147.28l-57.65 244.93c10.56,109.1 36.14,216.55 73.83,319.45 52.9,144.76 129.74,283.21 224.88,404.52 26.07,33.33 53.87,65.3 85.56,99.21l0 -0.29c69.66,72.96 148.92,138.85 236.02,189.33 100.77,58.42 214.22,97.95 331.75,97.95 117.14,0 230.99,-39.43 331.46,-97.86 124.41,-72.47 233.41,-175.27 321.78,-288.34 94.95,-121.31 171.98,-259.76 224.88,-404.52 37.59,-102.7 63.17,-210.15 74.41,-318.96zm-1508.48 1060.36c-4.94,101.06 -9.89,209.97 -25.58,307.44l586.96 335.62 578.53 -330.58c-16.96,-98.93 -23.93,-208.42 -30.52,-310.63 -43.8,34.68 -89.72,66.85 -137.97,94.85 -126.35,73.25 -268.39,120.24 -415.47,120.24 -147.17,0 -289.31,-46.8 -415.75,-120.24 -49.03,-28.48 -95.73,-61.23 -140.2,-96.7zm1500.15 -1927.82c-67.24,-454.61 -326.52,-594.42 -944.2,-594.42 -617.67,0 -876.76,139.72 -944.1,593.55 67.05,-84.3 154.16,-119.47 260.25,-118.69 92.63,0.68 189.52,27.52 278.17,50.87l3.39 0.77c133.13,35.07 264.03,68.41 402.29,68.41 138.75,0 269.36,-33.43 402.39,-68.31 90.11,-23.55 187.96,-50.97 281.37,-51.74 105.22,-0.78 191.45,32.94 258.69,117.24l1.75 2.32zm-979.66 2914.85l24.9 61.23c6.49,10.75 12.21,23.93 16.38,37.98 4.16,-14.05 9.98,-27.23 16.47,-37.88l24.7 -61.14 -41.46 -74.8 -40.99 74.61zm41.28 210.63c-21.03,167.04 -43.41,332.24 -65.79,497.44 -12.99,95.73 -25.78,191.45 -38.18,287.28l89.53 160.16 16.37 0 99.9 -177.89c-12.31,-90.11 -24.42,-180.22 -36.63,-270.33 -22.38,-165.48 -44.76,-330.88 -65.2,-496.66zm167.71 -8.33c19.96,160.16 40.6,321.19 62.98,482.03l6.98 50.48c5.52,-9.79 11.04,-19.47 16.57,-29.26 182.73,-323.23 320.61,-587.74 435.13,-928.4l-424.09 410.72c-26.45,26.16 -66.66,31.1 -97.57,14.43zm-408 549.66l8.91 -66.18c21.8,-161.71 43.7,-323.42 63.66,-483.87 -30.23,16.57 -69.67,12.41 -97.18,-12.98l-439.88 -419.92c115.01,342.99 252.98,609.05 436.1,933.34l1.45 2.23c9.01,15.89 18.02,31.68 26.94,47.38zm-438.82 -1291.06l-62.59 40.89 513.71 490.36 114.72 -208.7 -565.84 -322.55zm1411.98 41.85l-60.84 -37.78 -558.58 318.38 114.24 208.41 505.18 -489.01zm-1668.54 85.56c-239.81,55.32 -507.22,145.33 -703.52,292.61 -142.14,106.67 -251.24,248.33 -251.24,432.42l0 676.49c0,43.79 18.02,86.23 48.93,117.23 31.39,31.3 73.06,48.45 117.34,48.45l1517.59 0 -59.88 -107.07 -0.68 -2.32c-47.19,-83.62 -96.12,-170.92 -145.82,-259.09l-1.36 -2.81c-235.05,-416.14 -389.3,-731.52 -521.36,-1195.91zm1129.83 1567.2l1518.08 0c44.28,0 86.13,-17.44 117.62,-48.54 30.91,-30.82 48.06,-73.64 48.16,-117.14l0.77 -676.49c0.2,-184.09 -110.26,-327.01 -252.01,-433.78 -196.3,-147.95 -462.65,-239.22 -702.74,-294.74 -132.65,467.01 -287.18,783.75 -524.08,1203.18 -46.02,81.49 -92.14,162.78 -136.91,244.75l-68.89 122.76z"/>
 </g>
</svg>
