<?xml version="1.0" encoding="UTF-8"?>
<!DOCTYPE svg PUBLIC "-//W3C//DTD SVG 1.1//EN" "http://www.w3.org/Graphics/SVG/1.1/DTD/svg11.dtd">
<!-- Creator: CorelDRAW 2021 (64-Bit) -->
<svg xmlns="http://www.w3.org/2000/svg" xml:space="preserve" width="50mm" height="50mm" version="1.1" style="shape-rendering:geometricPrecision; text-rendering:geometricPrecision; image-rendering:optimizeQuality; fill-rule:evenodd; clip-rule:evenodd"
viewBox="0 0 5000 5000"
 xmlns:xlink="http://www.w3.org/1999/xlink"
 xmlns:xodm="http://www.corel.com/coreldraw/odm/2003">
 <defs>
  <style type="text/css">
   <![CDATA[
    .fil0 {fill:black;fill-rule:nonzero}
   ]]>
  </style>
 </defs>
 <g id="Layer_x0020_1">
  <metadata id="CorelCorpID_0Corel-Layer"/>
  <g id="_2369061822336">
   <path class="fil0" d="M3880.52 805.54c-2.87,0 -4.78,0 -7.65,0 -250.38,1.62 -488.34,100.44 -668,277.8 -179.67,177.57 -281.92,413.42 -286.7,664.09 -5.74,271.03 103.21,533.17 300.08,719.42 170.1,161.22 513.19,527.14 664.18,978.12 129.01,-376.91 401.38,-732.79 659.41,-978.3 193.99,-183.68 301.03,-431.87 301.03,-698.69 0,-258.41 -101.3,-500.96 -284.79,-683.01 -181.57,-180.33 -421.44,-279.43 -677.56,-279.43zm0 3146.22c-42.05,0 -76.45,-33.84 -76.45,-75.69l0 -0.77c0,-193.9 -66.9,-708.14 -689.99,-1298.64 -227.44,-215.41 -354.55,-518.92 -347.86,-832.28 6.69,-290.43 124.24,-563.37 332.57,-768.45 208.33,-205.47 482.61,-319.67 773.13,-321.58 2.87,-0.19 5.73,-0.19 8.6,-0.19 296.25,0 574.35,114.68 784.6,323.59 212.15,210.53 328.74,491.4 328.74,790.23 0,308.87 -123.28,595.86 -346.9,808.49 -510.32,482.7 -690.94,987.86 -690.94,1299.6 0,41.85 -34.41,75.69 -75.5,75.69z"/>
   <path class="fil0" d="M3880.52 1562.8c-115.64,0 -208.34,93.47 -208.34,208.43 0,114.97 92.7,208.43 208.34,208.43 114.68,0 208.33,-93.46 208.33,-208.43 0,-114.96 -93.65,-208.43 -208.33,-208.43zm0 568.05c-198.78,0 -360.28,-161.22 -360.28,-359.62 0,-198.4 161.5,-359.61 360.28,-359.61 197.82,0 359.33,161.21 359.33,359.61 0,198.4 -161.51,359.62 -359.33,359.62z"/>
   <path class="fil0" d="M416.26 495.04c-149.09,0 -271.41,121.75 -271.41,271.22l0 3155.78c73.59,-61.65 168.19,-98.82 271.41,-98.82l173.93 0 0 -3328.18 -173.93 0zm4242.17 4173.37l-4242.17 0c-232.23,0 -422.4,-189.51 -422.4,-422.69l0 -3479.46c0,-232.9 190.17,-422.4 422.4,-422.4l249.42 0c42.05,0 75.5,33.83 75.5,75.69l0 3479.46c0,41.76 -33.45,75.68 -75.5,75.68l-249.42 0c-149.09,0 -271.41,121.47 -271.41,271.03 0,149.56 122.32,271.22 271.41,271.22l4166.67 0 0 -1629.98c0,-41.57 34.4,-75.49 75.5,-75.49 42.04,0 76.45,33.92 76.45,75.49l0 1705.76c0,41.76 -34.41,75.69 -76.45,75.69z"/>
   <path class="fil0" d="M2756.67 1123.77l-2090.99 0c-42.05,0 -75.49,-33.83 -75.49,-75.69 0,-41.57 33.44,-75.49 75.49,-75.49l2090.99 0c42.04,0 75.49,33.92 75.49,75.49 0,41.86 -33.45,75.69 -75.49,75.69z"/>
   <path class="fil0" d="M1644.28 3032.32l-666.1 0c-42.05,0 -76.45,-33.84 -76.45,-75.69 0,-41.57 34.4,-75.5 76.45,-75.5l590.6 0 0 -886.75 -605.89 -472c-33.45,-25.62 -39.18,-73.11 -13.38,-105.99 25.81,-32.97 73.59,-38.8 106.08,-13.18l635.52 494.74c18.15,14.24 28.66,36.41 28.66,59.54l0 999.14c0,41.85 -33.45,75.69 -75.49,75.69z"/>
   <path class="fil0" d="M1644.28 4382.66c-42.05,0 -75.5,-33.92 -75.5,-75.78l0 -948.87 -590.6 0c-42.05,0 -76.45,-33.83 -76.45,-75.69 0,-41.57 34.4,-75.5 76.45,-75.5l666.1 0c42.04,0 75.49,33.93 75.49,75.5l0 1024.56c0,41.86 -33.45,75.78 -75.49,75.78z"/>
   <path class="fil0" d="M3069.16 3032.32l-1080.85 0c-42.04,0 -75.49,-33.84 -75.49,-75.69l0 -927.66c0,-41.76 33.45,-75.5 75.49,-75.5l519.89 0c41.09,0 75.49,33.74 75.49,75.5 0,41.86 -34.4,75.69 -75.49,75.69l-444.39 0 0 776.47 1005.35 0c41.09,0 75.5,33.93 75.5,75.5 0,41.85 -34.41,75.69 -75.5,75.69z"/>
   <path class="fil0" d="M3213.47 4382.66c-28.67,0 -55.43,-16.15 -68.81,-43.48l-462.54 -981.17 -618.31 0 0 948.87c0,41.86 -34.4,75.78 -75.5,75.78 -42.04,0 -75.49,-33.92 -75.49,-75.78l0 -1024.56c0,-41.57 33.45,-75.5 75.49,-75.5l741.6 0c29.62,0 56.38,16.82 68.8,43.29l483.57 1024.56c17.2,37.66 0.95,82.76 -36.32,100.73 -10.51,4.88 -21.98,7.26 -32.49,7.26z"/>
   <path class="fil0" d="M3552.72 4382.66c-28.66,0 -56.37,-16.15 -68.8,-43.48l-483.56 -1024.65c-11.47,-23.32 -9.56,-50.66 4.78,-72.64 13.37,-21.98 37.26,-35.07 64.02,-35.07l240.83 0c42.05,0 76.45,33.93 76.45,75.5 0,41.86 -34.4,75.69 -76.45,75.69l-122.33 0 432.92 916.66c18.16,37.66 1.91,82.76 -36.32,100.73 -10.51,4.88 -21.02,7.26 -31.54,7.26z"/>
   <path class="fil0" d="M2414.54 1740.46l-529.44 0c-18.16,0 -35.36,-6.78 -49.69,-18.93l-343.08 -300.74c-31.54,-27.62 -34.41,-75.5 -6.69,-106.84 26.75,-31.26 75.5,-34.5 106.08,-6.98l322.05 282.02 500.77 0c41.09,0 75.49,33.92 75.49,75.68 0,41.86 -34.4,75.79 -75.49,75.79z"/>
  </g>
 </g>
</svg>
