<?xml version="1.0" encoding="UTF-8"?>
<!DOCTYPE svg PUBLIC "-//W3C//DTD SVG 1.1//EN" "http://www.w3.org/Graphics/SVG/1.1/DTD/svg11.dtd">
<!-- Creator: CorelDRAW 2021 (64-Bit) -->
<svg xmlns="http://www.w3.org/2000/svg" xml:space="preserve" width="50mm" height="50mm" version="1.1" style="shape-rendering:geometricPrecision; text-rendering:geometricPrecision; image-rendering:optimizeQuality; fill-rule:evenodd; clip-rule:evenodd"
viewBox="0 0 5000 5000"
 xmlns:xlink="http://www.w3.org/1999/xlink"
 xmlns:xodm="http://www.corel.com/coreldraw/odm/2003">
 <defs>
  <style type="text/css">
   <![CDATA[
    .fil0 {fill:black;fill-rule:nonzero}
   ]]>
  </style>
 </defs>
 <g id="Layer_x0020_1">
  <metadata id="CorelCorpID_0Corel-Layer"/>
  <g id="_2368807389664">
   <path class="fil0" d="M166.33 2673.75l474.68 125.69 348.08 -1282.11 -473.12 -126.78 -349.64 1283.2zm529.23 297.59c-6.6,0 -13.31,-0.94 -19.91,-2.58l-624.28 -165.37c-19.8,-5.3 -36.93,-18.24 -47.11,-36.22 -10.37,-17.78 -13.12,-38.96 -7.62,-58.86l390.26 -1432.83c11.17,-41.13 53.63,-65.43 94.69,-54.33l622.54 166.83c19.9,5.32 36.77,18.34 47.03,36.12 10.27,17.77 12.92,38.95 7.51,58.85l-388.48 1431.27c-9.28,34.38 -40.54,57.12 -74.63,57.12z"/>
   <path class="fil0" d="M827.56 2702.54l42.54 13.46c101.11,31.91 209.55,16.71 297.75,-41.89l806.44 -535.04c132.37,-87.94 304.44,-89.39 438.37,-3.59l307.29 196.56c23.93,15.38 52.25,19.41 79.75,11.46 27.41,-7.98 49.13,-26.69 61.14,-52.73 17.77,-38.51 8.7,-83.73 -22.56,-112.28l-528.03 -485.16c-93.23,-85.8 -226.23,-115.97 -347.42,-78.91l-404.55 123.74c-120.29,36.85 -247.98,38.59 -369.44,4.78l-93.6 -26.04 -267.68 985.64zm148.33 184.63c-50.98,0 -102.41,-7.8 -152.46,-23.68l-113.3 -35.83c-39.6,-12.52 -62.26,-53.97 -51.34,-94.04l307.56 -1132.33c5.33,-19.88 18.43,-36.84 36.3,-47.03 18.06,-10.16 39.14,-12.99 59.04,-7.23l168.5 46.83c92.76,25.67 190.68,24.4 282.9,-3.66l404.55 -123.75c173.17,-53.09 363.82,-9.82 497.31,112.86l527.93 485.02c81.12,74.45 104.61,191.49 58.41,291.46 -30.53,66.16 -88.19,115.82 -158.22,136.27 -70.06,20.45 -145.32,9.56 -206.54,-29.68l-307.31 -196.56c-82.21,-52.62 -188,-51.89 -269.31,2.21l-806.44 535.07c-83.6,55.59 -180.06,84.07 -277.58,84.07z"/>
   <path class="fil0" d="M3854.38 2967.28c-29.16,0 -56.94,-16.47 -70.14,-44.54 -18.06,-38.69 -1.45,-84.79 37.32,-102.85l310.14 -145.13 -371.76 -922.85 -226.23 33.47c-97.99,14.57 -198.92,4.13 -291.97,-29.71l-597.62 -217.63c-45.55,-16.5 -95.34,-15.67 -140.35,2.39l-227.43 91.5c-39.88,15.85 -84.89,-3.22 -100.74,-42.82 -15.96,-39.68 3.19,-84.8 42.9,-100.75l227.53 -91.57c80.48,-32.28 169.5,-33.84 251,-4.14l597.59 217.63c68.94,25.13 143.75,32.82 216.54,22.01l286.65 -42.27c35.31,-5.77 69.59,14.39 83.07,47.57l421.67 1047.28c15.41,38.12 -1.64,81.57 -38.85,99l-376.61 176.11c-10.52,5.02 -21.72,7.3 -32.71,7.3z"/>
   <path class="fil0" d="M3664.16 2797.34c-11.46,0 -22.92,3.4 -33.1,10.57l-49.4 34.98c-25.86,18.24 -31.99,54.1 -13.67,80.03l139.98 197.65c18.35,25.88 54.29,32.09 79.94,13.77l49.5 -34.95c25.85,-18.42 32.09,-54.26 13.77,-80.21l-140.09 -197.65c-11.17,-15.85 -28.87,-24.19 -46.93,-24.19zm91.03 502.19c-66.65,0 -132.29,-31.2 -173.53,-89.49l-139.99 -197.75c-67.64,-95.5 -44.93,-228.23 50.6,-295.69l49.42 -35.03c95.71,-67.49 228.36,-44.85 295.72,50.59l139.98 197.62c67.67,95.63 44.93,228.18 -50.59,295.75l-49.32 35.03c-37.32,26.4 -80.04,38.97 -122.29,38.97z"/>
   <path class="fil0" d="M3227.52 2755.78c-12.55,0 -25.2,3.77 -36.19,11.59l-51.53 36.49c-13.67,9.61 -22.64,24.19 -25.57,40.59 -2.76,16.6 1.01,33.29 10.73,46.85l352 497.24c9.64,13.64 24.12,22.81 40.72,25.57 16.5,2.83 33.08,-0.94 46.75,-10.55l51.42 -36.46c13.75,-9.75 22.82,-24.14 25.57,-40.72 2.94,-16.5 -0.83,-33.08 -10.62,-46.83l-351.93 -497.16c-12.21,-17.33 -31.62,-26.61 -51.35,-26.61zm301.15 814.06c-12.37,0 -24.84,-0.99 -37.13,-3.12 -57.3,-9.8 -107.35,-41.32 -140.9,-88.79l-352.02 -497.08c-33.55,-47.48 -46.65,-105.14 -36.93,-162.41 9.9,-57.25 41.34,-107.38 88.72,-140.92l51.63 -36.49c47.29,-33.62 105.21,-46.54 162.25,-36.85 57.3,9.9 107.25,41.35 140.9,88.75l352.03 497.23c33.44,47.37 46.64,105.04 36.84,162.33 -9.9,57.3 -41.34,107.27 -88.74,140.9l-51.42 36.43c-37.21,26.38 -80.58,40.02 -125.23,40.02z"/>
   <path class="fil0" d="M2962.96 2976.56c-12.83,0 -25.38,3.95 -36.01,11.54l-51.64 36.48c-13.64,9.74 -22.71,24.04 -25.57,40.54 -2.83,16.58 0.91,33.26 10.74,46.95l261.44 369.34c9.72,13.74 24.11,22.92 40.61,25.72 16.69,2.89 33.29,-1.09 46.93,-10.7l51.53 -36.49c13.57,-9.64 22.74,-24.08 25.47,-40.61 2.94,-16.61 -0.91,-33.19 -10.63,-46.93l-261.44 -369.34c-9.72,-13.74 -24.19,-22.73 -40.69,-25.67 -3.59,-0.55 -7.15,-0.83 -10.74,-0.83zm210.67 686.25c-12.37,0 -24.76,-1.11 -37.13,-3.11 -57.3,-9.88 -107.35,-41.37 -140.9,-88.85l-261.54 -369.33c-33.47,-47.61 -46.67,-105.14 -36.85,-162.44 9.79,-57.3 41.34,-107.35 88.74,-140.89l51.5 -36.38c47.4,-33.58 104.98,-46.78 162.28,-36.98 57.2,9.92 107.25,41.37 140.98,88.74l261.54 369.44c69.23,98.02 46.02,234.05 -51.89,303.22l-51.61 36.51c-37.03,26.33 -80.58,40.07 -125.12,40.07z"/>
   <path class="fil0" d="M2701.34 3205.39c-14.14,0 -27.78,4.39 -39.42,12.52l-53.64 38.07c-30.79,21.73 -38.04,64.53 -16.31,95.42l215.16 303.72c10.44,14.92 26.29,24.84 44.28,27.96 18.13,3.02 36.19,-1.11 51.06,-11.56l53.61 -37.97c14.94,-10.62 24.76,-26.4 27.96,-44.43 3.04,-17.98 -1.09,-36.15 -11.54,-51.01l-215.16 -303.77c-10.63,-15.02 -26.3,-24.95 -44.28,-27.96 -3.92,-0.65 -7.8,-0.99 -11.72,-0.99zm161.89 633.35c-69.95,0 -138.89,-32.72 -182.45,-94.15l-215.13 -303.8c-71.05,-100.59 -47.14,-240.1 53.17,-311.15l53.63 -37.96c48.67,-34.36 107.89,-47.95 166.65,-37.94 58.67,10.08 110.1,42.46 144.56,91.23l215.08 303.7c34.46,48.67 47.84,107.89 37.86,166.54 -10.19,58.78 -42.46,110.23 -91.24,144.61l-53.42 37.91c-38.98,27.62 -84.07,41.01 -128.71,41.01z"/>
   <path class="fil0" d="M2138.83 3734.04c-62.24,0 -122.73,-29.62 -160.33,-83.33 -32.1,-45.84 -42.98,-103.19 -30.07,-157.5 12.84,-54.24 48.49,-100.54 97.55,-126.97l217.81 -117.14c37.68,-20.27 84.51,-6.24 104.78,31.52 20.16,37.6 6.13,84.55 -31.55,104.82l-217.71 117.04c-14.03,7.54 -18.79,19.88 -20.34,26.48 -1.56,6.71 -2.94,20.01 6.31,33 11.17,16.06 32.46,21.91 50.23,13.75l391.81 -178.76c38.95,-17.8 84.79,-0.51 102.49,38.33 17.7,38.77 0.55,84.72 -38.33,102.49l-391.6 178.68c-26.22,11.9 -53.82,17.59 -81.05,17.59z"/>
   <path class="fil0" d="M1827.99 3617.73c-73.73,0 -146.23,-35.5 -189.96,-99.14 -36.2,-52.51 -48.85,-118.23 -34.92,-180.39 13.92,-62.23 53.63,-116.34 108.72,-148.22l631.89 -366.97c37.03,-21.46 84.25,-8.89 105.79,28.14 21.44,36.95 8.89,84.22 -28.06,105.71l-631.97 366.95c-18.25,10.57 -30.8,27.67 -35.4,48.22 -4.57,20.53 -0.54,41.43 11.38,58.84 20.79,30.27 61.33,40.79 94.33,24.73l214.96 -104.77c38.61,-18.58 84.61,-2.7 103.5,35.68 18.6,38.41 2.65,84.79 -35.76,103.47l-214.87 104.83c-31.81,15.46 -65.9,22.92 -99.63,22.92z"/>
   <path class="fil0" d="M1604.48 3396.25c-21.46,0 -43,-2.93 -64.18,-8.81 -62.89,-17.33 -114.68,-58.41 -146.02,-115.42 -61.89,-112.11 -24.84,-252.56 84.51,-319.58l620.07 -380.35c36.41,-22.35 83.99,-11.09 106.33,25.49 22.48,36.31 11.1,83.99 -25.46,106.34l-620.07 380.35c-38.59,23.75 -51.79,73.41 -29.89,113.11 11.1,20.27 29.52,34.75 51.69,40.8 22.01,6.16 45.29,3.12 65.28,-8.52l495.49 -289.59c36.74,-21.64 84.25,-9.17 105.79,27.68 21.62,36.85 9.17,84.32 -27.7,105.89l-495.47 289.69c-37.21,21.83 -78.58,32.92 -120.37,32.92z"/>
   <path class="fil0" d="M1356.14 3165.66c-22.27,0 -44.83,-2.65 -67.1,-8.16 -74.34,-18.14 -136.68,-64.53 -175.27,-130.63 -74.81,-128.06 -36.59,-292.52 86.9,-374.46l435.52 -289.17c35.75,-23.43 83.7,-13.82 107.34,21.86 23.57,35.44 13.96,83.62 -21.72,107.14l-435.52 289.17c-55.27,36.56 -72.42,110.18 -38.95,167.37 17.3,29.55 45.08,50.33 78.45,58.49 33.18,8.09 67.48,2.37 96.46,-15.77l243.01 -153.44c36.02,-22.69 83.96,-12.11 106.7,24.21 22.82,36.02 12.11,83.86 -24.11,106.65l-243.02 153.39c-45.29,28.61 -96.54,43.35 -148.69,43.35z"/>
   <path class="fil0" d="M3881.25 1638.43l460.64 1137.62 474.5 -182.49 -478.16 -1242.17 -492.38 192.97 35.4 94.07zm419.12 1313.94c-30.07,0 -58.6,-17.6 -71.05,-46.78l-69.48 -161.27 -422.61 -1048.96c-0.57,-1.56 -63.17,-167.94 -63.17,-167.94 -14.94,-39.71 4.86,-83.89 44.18,-99.3l636.02 -249.15c19.15,-7.61 40.52,-7.14 59.41,1.28 18.78,8.34 33.54,23.75 41.05,43l534.01 1386.99c7.33,19.15 6.78,40.43 -1.56,59.22 -8.44,18.68 -23.83,33.37 -43.01,40.72l-616.01 236.94c-9.18,3.48 -18.53,5.25 -27.78,5.25z"/>
  </g>
 </g>
</svg>
