<?xml version="1.0" encoding="UTF-8"?>
<!DOCTYPE svg PUBLIC "-//W3C//DTD SVG 1.1//EN" "http://www.w3.org/Graphics/SVG/1.1/DTD/svg11.dtd">
<!-- Creator: CorelDRAW 2021 (64-Bit) -->
<svg xmlns="http://www.w3.org/2000/svg" xml:space="preserve" width="50mm" height="50mm" version="1.1" style="shape-rendering:geometricPrecision; text-rendering:geometricPrecision; image-rendering:optimizeQuality; fill-rule:evenodd; clip-rule:evenodd"
viewBox="0 0 5000 5000"
 xmlns:xlink="http://www.w3.org/1999/xlink"
 xmlns:xodm="http://www.corel.com/coreldraw/odm/2003">
 <defs>
  <style type="text/css">
   <![CDATA[
    .fil0 {fill:black}
   ]]>
  </style>
 </defs>
 <g id="Layer_x0020_1">
  <metadata id="CorelCorpID_0Corel-Layer"/>
  <path class="fil0" d="M2454.05 2539.21l-1.55 -2.43 -0.78 -1.36c-159.13,-276.24 -307.81,-558.62 -444.12,-846.82l-33.23 -70.27 421.72 -164.63c32.57,-12.71 46.34,-48.53 34.99,-79.75l-500.66 -1256.43c-11.88,-31.73 -47.93,-46.57 -78.83,-34.96l-761.48 297.56c-155.2,60.64 -279.47,178.26 -347.34,330.55 -67.25,150.9 -72.24,324.93 -13.89,479.48 239.77,635.12 532.43,1250.28 871.79,1838.2 339.29,587.79 725.7,1148.8 1155.28,1674.27 105.47,129.02 257.28,209.88 422.82,227.49 164.22,17.46 331.69,-31.36 460.52,-134.76l637.09 -511.35c26.49,-21.26 30.46,-59.63 10.28,-86.01l-837.74 -1060.56c-21.42,-27.12 -59.86,-32.49 -87.06,-10.71l-352.81 282.52 -44.27 -63.8c-181.44,-261.45 -351.95,-530.43 -510.73,-806.23zm-106.06 61.16c184.26,319.64 383.78,630.59 598.31,930.76l0.78 1.09 0.73 1.1c18.17,27.51 56.19,33.19 82.78,14.69l359.59 -287.89 763.02 966.01 -590.54 473.36c-103.93,83.31 -238.62,122.16 -370.99,108.3 -133.43,-13.98 -255.26,-78.78 -340.31,-182.7 -425.77,-520.19 -808.49,-1075.79 -1144.5,-1657.96 -336.1,-582.33 -626.29,-1191.54 -864.14,-1820.47 -47.3,-125.06 -42.61,-264.72 11.77,-386.76 54.52,-122.38 155.14,-217.1 279.8,-265.8l705.08 -275.48 454.97 1143.34 -424.39 165.32c-30.48,12.39 -47.52,47.8 -34.85,78.64l1.67 3.86c153,336.14 322.82,665.45 508.49,985.44l1.13 1.95 1.6 3.2z"/>
 </g>
</svg>
