<?xml version="1.0" encoding="UTF-8"?>
<!DOCTYPE svg PUBLIC "-//W3C//DTD SVG 1.1//EN" "http://www.w3.org/Graphics/SVG/1.1/DTD/svg11.dtd">
<!-- Creator: CorelDRAW 2021 (64-Bit) -->
<svg xmlns="http://www.w3.org/2000/svg" xml:space="preserve" width="50mm" height="50mm" version="1.1" style="shape-rendering:geometricPrecision; text-rendering:geometricPrecision; image-rendering:optimizeQuality; fill-rule:evenodd; clip-rule:evenodd"
viewBox="0 0 5000 5000"
 xmlns:xlink="http://www.w3.org/1999/xlink"
 xmlns:xodm="http://www.corel.com/coreldraw/odm/2003">
 <defs>
  <style type="text/css">
   <![CDATA[
    .fil0 {fill:black}
   ]]>
  </style>
 </defs>
 <g id="Layer_x0020_1">
  <metadata id="CorelCorpID_0Corel-Layer"/>
  <path class="fil0" d="M3163.8 3007.54c17.44,-1.75 34.59,1.93 44.47,8.81l-0.97 -1.35c73.92,13.27 147.25,26.35 219.52,43.88 13.08,-0.1 25.96,3.1 37.49,9.4 67.91,17.63 134.85,39.72 198.59,69.36 277.64,129.23 443.01,347.1 530.2,635.01 80.6,266.21 86.12,562.94 86.12,839.9l0 59.77c0,88.84 -35.46,172.34 -97.94,235.22 -62.49,62.77 -146.57,98.61 -235.31,98.61l-2904.01 0c-86.12,0 -168.08,-33.9 -218.94,-88.64l-7.94 0 -9.98 -10.27c-61.61,-63.16 -96.58,-146.47 -96.58,-234.92l0.19 -64.61c-0.97,-274.83 5.72,-570.11 86.12,-835.16 87.29,-287.62 252.36,-505.78 530,-634.91 57.16,-26.64 116.93,-46.99 174.48,-62.49 7.36,-4.06 18.89,-7.36 27.8,-7.84 81.28,-21.9 166.91,-36.62 252.65,-52.22l43.11 -7.07 1.74 0.19c11.33,-3.29 24.41,-11.81 34.2,-24.31 14.04,-17.73 21.02,-39.72 22.28,-61.03l9.78 -218.94c-8.33,-10.17 -16.47,-20.44 -24.41,-31 -32.26,-5.42 -64.32,-11.72 -96.29,-18.69 -37.2,-8.14 -74.11,-17.73 -110.92,-28.68 -21.32,-6.78 -38.56,-20.63 -48.34,-39.04 -378.01,-614.09 -612.64,-1391.7 -153.84,-2031.65 110.82,-154.71 255.46,-287.04 418.69,-384.88 114.7,-68.78 265.44,-135.63 400.19,-146.77 66.65,-5.52 147.05,2.91 194.81,52.99 143.67,-86.6 311.84,-87.38 470.23,-32.65 172.63,59.68 326.37,181.74 444.37,319.01 142.98,166.53 245.57,367.64 305.64,578.34 165.07,579.51 0.09,1167.92 -323.57,1661.11 -12.69,17.44 -29.15,29.35 -48.34,33.71 -35.06,10.56 -72.46,18.51 -109.46,26.06 -30.42,6.2 -61.13,11.04 -91.74,15.69 -6.79,9.01 -13.66,18.02 -20.83,26.74l9.59 217.87c1.35,22.19 8.52,44.08 22.57,61.91 8.91,11.23 20.83,19.76 34.58,23.54zm-1372.61 176.6c-65,11.43 -130.1,22.86 -194.33,38.36 -8.43,30.32 -12.11,63.94 -15.99,94.36 -9.01,70.62 -20.05,136.3 -36.03,203.14l365.21 -202.76c3.1,-3.48 10.27,-7.46 16.28,-8.91 39.81,-17.63 89.41,2.71 107.63,45.05l448.14 1079.47 452.5 -1086.83c23.25,-40.59 73.43,-55.32 113.83,-33.23l371.03 207.02c-15.99,-67.04 -27.13,-133.11 -35.94,-203.73 -4.07,-32.26 -7.75,-67.62 -17.64,-99.39 -61.99,-13.85 -124.58,-25 -186.29,-36.23l-5.03 -0.68 -235.99 88.35c-12.79,4.75 -25.28,11.43 -35.46,20.54 -8.04,7.16 -14.24,15.79 -18.5,25.67l-313.68 720.74c-8.23,18.89 -22.86,33.43 -41.94,42.82 -42.53,18.7 -91.55,0.2 -111.22,-41.27l-315.32 -690.61c-6.01,-12.99 -13.28,-25.58 -23.45,-35.85 -9.39,-9.3 -20.05,-16.56 -32.64,-21.5l-255.17 -104.53zm200.92 -98.81l117.6 48.34c33.33,13.75 63.16,33.13 88.45,58.8 23.64,24.02 42.24,52.51 56.57,83.02l237.44 520.7 238.7 -548.5c13.95,-32.07 34.3,-60.65 60.55,-83.9 25.86,-22.95 55.8,-40.59 88.25,-52.69l106.27 -39.72c-27.8,-40.88 -43.4,-89.32 -46.59,-139.41l-3.01 -68c-57.44,45.63 -121.19,84.38 -189.68,112.76 -80.5,33.42 -165.56,51.73 -252.84,51.73 -123.81,0 -240.64,-36.33 -347,-99.1 -33.14,-19.57 -65.01,-41.56 -95.23,-65.59l-2.91 67.53c-3.87,56.47 -22.67,110.05 -56.57,154.03zm53.37 -2186.46c-179.5,167.01 -299.14,353.88 -332.08,605.66 -1.75,16.56 -3.78,33.32 -5.23,50.18 -1.65,17.73 -2.91,35.55 -3.68,53.28 -0.78,17.83 -1.26,35.65 -1.36,53.48 -0.1,15.88 0,31.77 0.48,47.66 0.49,2.81 0.68,5.52 0.59,8.14 12.01,153.35 41.26,307.86 90.67,455.01 44.27,131.95 105.3,260.89 187.45,375.68l7.46 10.18c66.36,89.6 147.06,170.88 242.19,227.07 80.11,47.27 168.46,75.56 261.85,75.56 65.2,0 128.46,-14.05 188.61,-38.94 67.43,-28 128.94,-68.3 188.23,-121.1 22.38,-20.34 44.95,-43.01 66.36,-67.13l6.98 -7.26c1.84,-3.49 6.39,-8.82 9.88,-11.63 16.08,-19.47 33.23,-41.46 49.5,-64.13 34.39,-47.66 65.58,-97.55 92.81,-149.67 29.35,-56.19 55.02,-114.22 77.01,-173.02 12.4,-36.81 24.12,-74.4 34.88,-112.28 11.33,-39.81 21.02,-80.02 30.41,-120.32 9.4,-40.29 16.76,-81.08 24.13,-121.77 7.07,-39.62 13.37,-79.43 17.72,-120.12l0.59 -4.26c1.64,-14.34 2.9,-29.16 3.97,-43.98 1.26,-16.67 2.03,-33.33 2.71,-50.77 1.36,-16.95 1.36,-33.32 2.13,-49.6 0.97,-17.63 0.58,-35.94 0.58,-53.66 0,-21.03 0.2,-43.21 -1.45,-65.39 0,-10.66 0,-20.06 -0.48,-29.45l-1.26 -28.2c-8.14,-60.93 -69.85,-94.16 -122.55,-115.18 -101.82,-40.49 -230.76,-58.41 -338.96,-76.24 -157.81,-25.96 -321.34,-53.09 -470.52,-112.18 -123.52,-48.82 -231.44,-119.35 -309.62,-225.62zm1500.59 2371.58c1.07,8.24 2.13,16.57 3.1,24.8 16.47,132.43 43.21,243.26 89.03,369.58 15.98,43.88 -6.1,92.22 -49.89,107.14 -22.48,8.92 -47.57,6.4 -69.17,-5.62l-469.94 -261.46 -489.7 1179.06c-17.63,42.53 -67.71,62.87 -109.08,44.66 -19.76,-7.46 -36.23,-23.74 -45.43,-44.18l-489.9 -1179.54 -469.45 261.37c-40.01,22.86 -91.45,8.62 -114.02,-31.68 -12.4,-22.09 -14.05,-48.83 -4.85,-71.69 45.44,-125.84 71.2,-235.5 88.25,-367.83 0.59,-4.84 1.26,-9.78 1.85,-14.73 -7.27,3.2 -14.54,6.4 -21.8,9.69 -232.11,107.82 -366.96,290.43 -440.2,531.36 -75.17,247.13 -80.02,528.84 -78.76,791.17l0 59.77c0,44.18 17.54,86.03 48.83,117.13 31.19,31 72.85,49.11 117.02,49.11l2904.01 0c44.08,0 85.54,-18.31 116.73,-49.21 31.2,-30.9 48.93,-73.04 48.93,-117.22l0.58 -59.87c2.52,-259.04 -3.39,-542.2 -78.86,-790.88 -72.95,-240.64 -208.57,-423.44 -441.26,-531.26 -15.12,-7.07 -30.52,-13.56 -46.02,-19.67zm-1804.38 -795.53c-41.95,-79.92 -76.92,-163.91 -105.6,-249.35 -53.76,-160.43 -85.83,-328.6 -99.29,-498.52l-0.1 -4.17c-0.78,-20.24 -1.16,-41.07 -0.97,-61.9 0.19,-20.05 0.58,-40.01 1.36,-60.35 1.26,-20.15 2.22,-40.2 3.87,-60.06 1.65,-18.99 4.07,-37.98 6.49,-56.87 43.69,-339.64 209.54,-558.29 457.73,-772.28l3.78 -4.75 3.1 -0.68c2.52,-3.58 9.98,-8.72 17.92,-11.91 40.89,-19.47 90.49,-2.04 110.54,39.62 56.77,117.89 157.71,187.55 276.38,234.92 136.01,54.35 291.79,78.66 435.94,102.78 121.57,20.35 258.56,40.21 373.25,85.74 117.13,46.4 211.39,120.61 227.56,254.58l2.33 37.01c0,11.53 0.58,21.89 0.58,31.68 0.87,23.15 1.36,46.88 1.36,70.72 0,19.08 -0.59,38.26 -0.59,58.02 -0.77,18.41 -1.35,36.23 -2.22,53.57 -0.59,18.22 -1.84,36.82 -3.39,55.03 -0.88,16.37 -2.43,33.32 -4.07,48.44 0.09,5.23 -0.49,10.46 -2.23,16.08 -4.75,40.3 -9.98,80.6 -17.05,120.61 -7.85,43.4 -16.95,86.7 -26.74,129.71 -9.69,43.01 -20.44,85.83 -32.16,128.26 -11.43,41.47 -24.32,82.54 -40.79,129.82 -24.12,63.74 -52.21,126.9 -84.28,188.03 -0.67,1.26 -1.45,2.61 -2.13,3.97 0.87,-0.29 1.75,-0.48 2.72,-0.68 284.9,-444.75 432.93,-975.14 285,-1495.35 -53.18,-187.36 -144.92,-366.58 -271.83,-514.7 -98.62,-115.18 -227.36,-219.61 -372,-269.89 -116.83,-40.69 -243.83,-42.91 -348.36,30.42 -6.59,4.36 -12.4,10.75 -17.82,15.4 -16.47,15.21 -30.04,26.06 -52.41,31.58 -77.6,22.09 -107.24,-33.03 -121.1,-93.29 -6.68,0.68 -44.46,3.3 -56.76,4.46 -108.41,8.43 -236.48,67.62 -328.22,122.74 -143.56,86.22 -270.86,203.05 -368.51,339.16 -408.61,569.52 -185.51,1274.38 145.41,1821.53 1.07,0.29 2.23,0.58 3.3,0.87z"/>
 </g>
</svg>
