<svg width="5000" height="5000" xmlns="http://www.w3.org/2000/svg" xml:space="preserve" version="1.1" clip-rule="evenodd">
 <g>
  <title>Layer 1</title>
  <g id="Layer_x0020_1">
   <metadata fill="#5fbf00" id="CorelCorpID_0Corel-Layer"/>
   <path class="fil0" d="m2493.76,1631.71c-278.47,0 -504.91,-226.76 -504.91,-505.38c0,-278.66 226.44,-505.31 504.91,-505.31c278.47,0 504.91,226.65 504.91,505.31c0,278.62 -226.44,505.38 -504.91,505.38zm0,-854.33c-192.26,0 -348.7,156.55 -348.7,348.95c0,192.41 156.44,349.02 348.7,349.02c192.26,0 348.63,-156.61 348.63,-349.02c0,-192.4 -156.37,-348.95 -348.63,-348.95zm954.8,854.33l-156.29,0c-43.11,0 -78.01,-34.97 -78.01,-78.22c0,-43.17 34.9,-78.14 78.01,-78.14l156.29,0c43.17,0 78.14,34.97 78.14,78.14c0,43.25 -34.97,78.22 -78.14,78.22zm546.82,0l-156.16,0c-43.17,0 -78.14,-34.97 -78.14,-78.22c0,-43.17 34.97,-78.14 78.14,-78.14l156.16,0c43.17,0 78.14,34.97 78.14,78.14c0,43.25 -34.97,78.22 -78.14,78.22zm-2847.08,0l-156.29,0c-43.11,0 -78.01,-34.97 -78.01,-78.22c0,-43.17 34.9,-78.14 78.01,-78.14l156.29,0c43.09,0 78.07,34.97 78.07,78.14c0,43.25 -34.98,78.22 -78.07,78.22zm546.82,0l-156.16,0c-43.17,0 -78.14,-34.97 -78.14,-78.22c0,-43.17 34.97,-78.14 78.14,-78.14l156.16,0c43.17,0 78.14,34.97 78.14,78.14c0,43.25 -34.97,78.22 -78.14,78.22zm642.35,2958.48l-962.14,0c-43.1,0 -78.01,-34.97 -78.01,-78.3l0,-792.76c0,-43.17 34.91,-78.15 78.01,-78.15l962.14,0c43.17,0 78.15,34.98 78.15,78.15l0,792.76c0,43.33 -34.98,78.3 -78.15,78.3zm-78.16,-792.92l-324.7,0l0,123.05c0,43.17 -34.97,78.14 -78.14,78.14c-43.17,0 -78.15,-34.97 -78.15,-78.14l0,-123.05l-324.85,0l0,636.48l805.84,0l0,-636.48zm1352.73,792.92l-962.12,0c-43.04,0 -78.02,-34.97 -78.02,-78.3l0,-792.76c0,-43.17 34.98,-78.15 78.02,-78.15l962.12,0c43.17,0 78.15,34.98 78.15,78.15l0,792.76c0,43.33 -34.98,78.3 -78.15,78.3zm-78.14,-792.92l-324.78,0l0,123.05c0,43.17 -35.05,78.14 -78.08,78.14c-43.17,0 -78.15,-34.97 -78.15,-78.14l0,-123.05l-324.83,0l0,636.48l805.84,0l0,-636.48zm78.14,-290.54l-962.12,0c-43.04,0 -78.02,-34.97 -78.02,-78.14l0,-792.85c0,-43.17 34.98,-78.14 78.02,-78.14l962.12,0c43.17,0 78.15,34.97 78.15,78.14l0,792.85c0,43.17 -34.98,78.14 -78.15,78.14zm-78.14,-792.77l-324.78,0l0,122.92c0,43.3 -35.05,78.14 -78.08,78.14c-43.17,0 -78.15,-34.84 -78.15,-78.14l0,-122.92l-324.83,0l0,636.43l805.84,0l0,-636.43zm1342.33,-1061.27l-148.76,-86.47l0,3189.98l188.26,0c43.11,0 78.15,34.98 78.15,78.2c0,43.17 -35.04,78.17 -78.15,78.17l-4843.41,0c-43.17,0 -78.16,-35 -78.16,-78.17c0,-43.22 34.99,-78.2 78.16,-78.2l188.26,0l0,-3190.3l-149.3,86.79c-37.3,21.4 -85.27,8.88 -106.79,-28.44c-21.72,-37.37 -8.99,-85.15 28.32,-106.86l2421.71,-1407.14c24.25,-14.07 54.22,-14.07 78.41,0l2421.78,1407.14c37.3,21.71 49.97,69.49 28.25,106.86c-21.45,36.98 -68.89,50.24 -106.73,28.44zm-3716.94,3103.51l2668.81,0l0,-2364.61l-2668.81,0l0,2364.61zm2914.23,-2755.54l-3159.52,0l0,234.51l3159.52,0l0,-234.51zm497.65,-525.24l-2077.41,-1207.22l-2076.89,1206.83l0,3281.17l586.26,0l0,-2364.61l-167.29,0c-43.17,0 -78.15,-34.98 -78.15,-78.28l0,-390.87c0,-43.17 34.98,-78.15 78.15,-78.15l3315.83,0c43.17,0 78.14,34.98 78.14,78.15l0,390.87c0,43.3 -34.97,78.28 -78.14,78.28l-167.28,0l0,2364.61l586.78,0l0,-3280.78z" fill="#5fbf00" fill-rule="nonzero" id="svg_1"/>
  </g>
 </g>

</svg>