<?xml version="1.0" encoding="UTF-8"?>
<!DOCTYPE svg PUBLIC "-//W3C//DTD SVG 1.1//EN" "http://www.w3.org/Graphics/SVG/1.1/DTD/svg11.dtd">
<!-- Creator: CorelDRAW 2021 (64-Bit) -->
<svg xmlns="http://www.w3.org/2000/svg" xml:space="preserve" width="50mm" height="50mm" version="1.1" style="shape-rendering:geometricPrecision; text-rendering:geometricPrecision; image-rendering:optimizeQuality; fill-rule:evenodd; clip-rule:evenodd"
viewBox="0 0 5000 5000"
 xmlns:xlink="http://www.w3.org/1999/xlink"
 xmlns:xodm="http://www.corel.com/coreldraw/odm/2003">
 <defs>
  <style type="text/css">
   <![CDATA[
    .fil0 {fill:black}
   ]]>
  </style>
 </defs>
 <g id="Layer_x0020_1">
  <metadata id="CorelCorpID_0Corel-Layer"/>
  <path class="fil0" d="M395.74 921.72c-87.55,0 -170.6,35.03 -232.52,96.78 -62.52,62.35 -96.85,144.91 -96.85,233.23l0 2508.58c0,88.52 35.06,171.6 96.74,233.98 62.05,60.48 145.04,96.25 232.63,96.25l4196.26 0c87.66,0 170.55,-35.33 232.67,-96.92 62.25,-61.72 96.7,-145.73 96.7,-233.31l0 -2508.58c0,-87.97 -34.64,-171.12 -96.88,-233.27 -61.56,-61.47 -145.4,-96.74 -232.49,-96.74l-4196.26 0zm-215.32 742.98l1316.43 994.85 -1316.43 995.12 0 -1989.97zm3310.47 994.85l1316.43 -994.85 0 1989.97 -1316.43 -995.12zm1316.43 -1138.21l-2313.89 1749.36 -2313.01 -1749.37 0 -269.6c0,-57.25 22.82,-112.15 63.48,-152.48 40.53,-40.2 94.58,-63.48 151.84,-63.48l4196.26 0c57.26,0 111.53,23.27 152.07,63.49 40.59,40.27 63.25,95.35 63.25,152.47l0 269.61zm-21.63 2333.45c-10.52,21.67 -24.66,41.32 -41.84,58.22 -40.62,39.95 -94.65,63.48 -151.85,63.48l-4196.26 0c-58,0 -111.72,-22.51 -152.7,-63.48 -17.01,-17.02 -30.92,-36.81 -41.42,-58.45l-25.97 -53.57 1415.4 -1069.97 868.47 656.22c20.17,15.24 49.37,15.27 69.53,0.02l867.64 -656.26 1414.98 1070.23 -25.98 53.56z"/>
 </g>
</svg>
