<svg width="5000" height="5000" xmlns="http://www.w3.org/2000/svg" xml:space="preserve" version="1.1" clip-rule="evenodd">
 <g>
  <title>Layer 1</title>
  <g id="Layer_x0020_1">
   <metadata fill="#5fbf00" id="CorelCorpID_0Corel-Layer"/>
   <path class="fil0" d="m4958.41,4600.52l0,19.66c0,43.23 -34.95,78.18 -78.31,78.18l-382.37,0c-84.3,408.63 -672.09,408.63 -756.39,0l-2247.15,0c-36.17,175.32 -192.1,307.76 -378.2,307.76c-186.24,0 -342.04,-132.44 -378.27,-307.76l-404.87,0c-43.15,0 -78.23,-34.95 -78.23,-78.18l0,-510.03l-147.38,0c-43.23,0 -78.18,-34.87 -78.18,-78.1l0,-1722.25c0,-43.09 34.95,-78.12 78.18,-78.12l1013.33,0c-74.93,-208.51 -129.83,-395.82 -129.83,-497.97c0,-339.88 276.81,-616.28 617.03,-616.28c340.42,0 617.22,276.4 617.22,616.28c0,102.15 -54.95,289.46 -129.96,497.97l1264,0c43.23,0 78.18,35.03 78.18,78.12l0,383.38l887.82,0c41.95,0 82.7,17.23 111.97,47.2c185.63,190.61 299.1,370.19 477.38,552.92c28.61,29.56 44.3,67.86 44.3,107.93c-0.19,875.24 -0.27,1133.58 -0.27,1199.29zm-609.14,19.93c0,-126.52 -103.14,-229.47 -229.72,-229.47c-126.66,0 -229.68,102.95 -229.68,229.47c0,303.26 459.4,303.66 459.4,0zm-3233.28,229.39c126.38,0 229.26,-102.55 229.66,-228.78c-0.14,-0.27 -0.19,-0.61 -0.19,-0.88c0,-0.21 0.05,-0.4 0.05,-0.67c-0.46,-126.04 -103.21,-228.53 -229.52,-228.53c-126.72,0 -229.8,102.95 -229.8,229.47c0,126.44 103.08,229.39 229.8,229.39zm491.78,-3576.27c-253.97,0 -460.54,206.38 -460.54,460.14c0,198.71 287.43,883.85 460.54,1271.54c173.3,-387.69 460.75,-1072.83 460.75,-1271.54c0,-253.76 -206.58,-460.14 -460.75,-460.14zm429.03,1114.46c-144.69,375.71 -325.34,768.78 -357.99,839.21c-12.73,27.62 -40.54,45.31 -71.04,45.31c-30.44,0 -58.12,-17.69 -70.9,-45.31c-32.72,-70.43 -213.23,-463.5 -358.07,-839.21l-993.25,0l0,1565.92l3094.85,0c0.08,-77.98 0.34,-1487.95 0.34,-1565.92l-1243.94,0zm-1625.69,1722.12l0,431.93l326.82,0c36.29,-175.13 192.03,-307.3 378.06,-307.3c185.89,0 341.63,132.17 377.99,307.3l2247.5,0c36.3,-175.13 192.02,-307.3 378.07,-307.3c186.03,0 341.69,132.17 378.05,307.3l304.34,0l0,-431.93l-4390.83,0zm4391.1,-708.92c-185.7,-188.59 -295.93,-365.61 -477.32,-551.85l-503.08,0l0,674.66l980.4,-1.08l0,-121.73zm0,277.81l-981.68,0c-85.58,0 -155.21,-69.57 -155.21,-155l0,-674.66l-228.11,0.07l0,1104.35l1365,0l0,-274.76zm-644.15,1019.51l-77.03,0c-103.42,0 -103.56,-156.28 0,-156.28l77.03,0c43.21,0 78.16,34.95 78.16,78.18c0,43.15 -34.95,78.1 -78.16,78.1zm-3003.56,0l-77.03,0c-43.23,0 -78.31,-34.95 -78.31,-78.1c0,-43.23 35.08,-78.18 78.31,-78.18l77.03,0c43.23,0 78.18,34.95 78.18,78.18c0,43.15 -34.95,78.1 -78.18,78.1zm453.27,-2694.64c-149.27,0 -270.6,-121.19 -270.6,-270.2c0,-149.13 121.33,-270.46 270.6,-270.46c149.35,0 270.73,121.33 270.73,270.46c0,149.01 -121.38,270.2 -270.73,270.2zm0,-384.39c-62.96,0 -114.19,51.25 -114.19,114.19c0,62.81 51.23,114.06 114.19,114.06c63.08,0 114.4,-51.25 114.4,-114.06c0,-62.94 -51.32,-114.19 -114.4,-114.19zm2804.67,496.5c-12.67,27.68 -40.48,45.37 -70.9,45.37c-30.45,0 -58.25,-17.69 -70.91,-45.37c-56.02,-120.66 -546.18,-1187.92 -546.18,-1493.6c0,-339.75 276.78,-616.28 617.09,-616.28c340.35,0 617.14,276.53 617.14,616.28c0,305.68 -490.22,1372.94 -546.24,1493.6zm-70.9,-1953.61c-254.06,0 -460.62,206.38 -460.62,460.01c0,198.84 287.43,883.85 460.62,1271.67c173.3,-387.82 460.67,-1072.83 460.67,-1271.67c0,-253.63 -206.64,-460.01 -460.67,-460.01zm0,730.42c-149.35,0 -270.6,-121.27 -270.6,-270.41c0,-149 121.25,-270.2 270.6,-270.2c149.32,0 270.73,121.2 270.73,270.2c0,149.14 -121.41,270.41 -270.73,270.41zm0,-384.47c-62.97,0 -114.27,51.17 -114.27,114.06c0,62.96 51.3,114.13 114.27,114.13c63.07,0 114.24,-51.17 114.24,-114.13c0,-62.89 -51.17,-114.06 -114.24,-114.06zm-846.83,153.78l-1732.88,0c-41.76,0 -75.83,33.93 -75.83,75.69l0,150.15c0,43.15 -35,78.16 -78.23,78.16c-43.15,0 -78.17,-35.01 -78.17,-78.16l0,-150.15c0,-127.87 104.17,-231.89 232.23,-231.89l1732.88,0c43.29,0 78.31,34.87 78.31,78.1c0,43.23 -35.02,78.1 -78.31,78.1zm834.04,2640.98c-30.52,30.45 -80.07,30.45 -110.57,0l-153.92,-153.85c-30.56,-30.57 -30.56,-79.91 0,-110.48c30.5,-30.45 80.06,-30.45 110.56,0l153.93,153.77c30.55,30.58 30.55,79.99 0,110.56z" fill="#5fbf00" fill-rule="nonzero" id="svg_1"/>
  </g>
 </g>

</svg>