<?xml version="1.0" encoding="UTF-8"?>
<!DOCTYPE svg PUBLIC "-//W3C//DTD SVG 1.1//EN" "http://www.w3.org/Graphics/SVG/1.1/DTD/svg11.dtd">
<!-- Creator: CorelDRAW 2021 (64-Bit) -->
<svg xmlns="http://www.w3.org/2000/svg" xml:space="preserve" width="50mm" height="50mm" version="1.1" style="shape-rendering:geometricPrecision; text-rendering:geometricPrecision; image-rendering:optimizeQuality; fill-rule:evenodd; clip-rule:evenodd"
viewBox="0 0 5000 5000"
 xmlns:xlink="http://www.w3.org/1999/xlink"
 xmlns:xodm="http://www.corel.com/coreldraw/odm/2003">
 <defs>
  <style type="text/css">
   <![CDATA[
    .fil0 {fill:black}
   ]]>
  </style>
 </defs>
 <g id="Layer_x0020_1">
  <metadata id="CorelCorpID_0Corel-Layer"/>
  <path class="fil0" d="M778.19 789.87c-456.58,456.58 -711.83,1070.28 -711.83,1716.14 0,645.86 255.24,1259.79 711.83,1716.38 456.54,456.54 1070.47,710.89 1716.13,710.89 646.01,0 1259.18,-254.16 1716.16,-710.69 456.86,-456.42 710.88,-1070.89 710.88,-1716.58 0,-645.69 -254.03,-1259.93 -710.88,-1716.34 -456.98,-456.53 -1070.15,-710.69 -1716.16,-710.69 -645.66,0 -1259.59,254.35 -1716.13,710.89zm4011.18 1716.14c0,610.52 -240.49,1191.38 -672.21,1623.09 -431.77,431.76 -1012.2,672.2 -1622.84,672.2 -610.44,0 -1191.21,-240.57 -1622.84,-672.2 -431.76,-431.76 -672.44,-1012.48 -672.44,-1623.09 0,-610.61 240.68,-1191.1 672.44,-1622.85 431.63,-431.63 1012.4,-672.2 1622.84,-672.2 610.64,0 1191.07,240.44 1622.84,672.2 431.78,431.78 672.21,1012.21 672.21,1622.85zm-1533 -1847.46c-120.28,-49.49 -244.71,-87.51 -372.32,-112.74 -128.25,-25.35 -259,-38.28 -389.73,-38.28 -131.16,0 -262.12,12.65 -390.77,38.26 -128.04,25.5 -253.39,64 -374.12,113.59 -120.89,49.66 -236.56,111.84 -345.19,184.45 -108.84,72.74 -210.15,156.63 -302.69,249.18 -92.85,92.84 -176.73,194.53 -249.61,303.78 -72.55,108.77 -134.94,224.45 -185.03,345.24 -49.89,120.32 -87.54,245.56 -112.79,373.33 -25.4,128.57 -38.29,259.6 -38.29,390.65 0,131.05 12.89,262.09 38.29,390.66 25.27,127.86 62.91,253.16 112.8,373.58 50.03,120.77 112.51,236.27 185.02,344.99 72.86,109.23 156.78,210.96 249.61,303.78l3.21 3.21c91.66,91.67 192.43,174.15 300.18,246.2 108.58,72.61 224.42,134.52 345.22,184.24 120.52,49.59 245.6,88.28 373.49,113.53 128.68,25.41 259.51,38.3 390.67,38.3 131.07,0 262.11,-13.01 390.71,-38.31 127.85,-25.15 252.77,-64 373.24,-113.53 120.87,-49.7 236.81,-111.19 345.27,-184.12 108.85,-73.2 210.8,-156.76 303.55,-249.52l3.21 -3.21c91.44,-91.43 173.61,-192.13 245.55,-299.54 72.96,-108.93 134.76,-224.93 184.95,-346.03 49.92,-120.44 88.44,-245.65 113.72,-373.57 25.4,-128.57 38.29,-259.61 38.29,-390.66 0,-131.05 -12.89,-262.08 -38.29,-390.65 -25.26,-127.81 -63.7,-252.98 -113.69,-373.28 -50.2,-120.78 -112.51,-236.48 -185.06,-345.3 -72.67,-108.99 -156.04,-210.92 -248.67,-303.54 -92.82,-92.81 -194.65,-176.29 -303.56,-249.53 -107.35,-72.19 -222.42,-134.47 -342.38,-183.04l-1.6 -0.65 -3.19 -1.47zm557.7 3167.13c-87.35,86.54 -181.87,164.82 -283.84,233.6 -101.19,68.26 -209.57,125.44 -322.2,172.37 -112.36,46.83 -229.3,82.27 -348.77,105.59 -120.11,23.44 -242.56,35.27 -364.94,35.27 -122.8,0 -245.32,-11.77 -365.85,-35.27 -119.2,-23.25 -235.85,-58.81 -347.91,-105.61 -112.61,-47.03 -220.87,-104.46 -322.24,-172.48 -99.03,-66.45 -192.67,-142.67 -277.61,-226.4l-3.24 -3.18 -2.69 -3.42c-87.01,-87.17 -164.97,-181.87 -233.77,-284.05 -68.06,-101.08 -125.29,-209.22 -172.29,-321.6 -47.06,-112.49 -81.75,-229.96 -105.56,-349.5 -23.92,-120.06 -35.34,-242.6 -35.34,-364.99 0,-122.44 11.41,-244.88 35.34,-364.98 23.76,-119.28 58.88,-236.26 105.47,-348.61 46.74,-112.71 104.6,-220.77 172.52,-322.13 68.19,-101.76 146.12,-197.01 232.8,-283.57 86.89,-86.77 182.15,-164.93 284.32,-233.04 101.65,-67.77 209.15,-126.36 322.14,-172.95 112.5,-46.38 229.61,-81.19 348.93,-104.96 120.15,-23.94 242.45,-36.26 364.98,-36.26 122.48,0 244.82,12.68 364.98,36.21 118.51,23.2 234.25,59.27 345.63,103.74l2.36 0.88 1.21 0.5c112.57,46.94 220.51,105.02 321.8,172.95 101.69,68.19 196.57,146.5 283.37,232.82 86.96,86.49 164.64,181.83 232.9,283.68 67.91,101.33 125.92,209.27 172.36,322.08 46.36,112.6 82.53,229.2 106.32,348.66 23.92,120.06 34.65,242.61 34.65,364.98 0,122.37 -10.75,244.91 -34.64,364.98 -23.82,119.65 -59.54,236.72 -106.14,349.45 -46.62,112.82 -104.86,220.78 -172.39,322.44 -65.87,99.15 -142.3,192.18 -225.97,276.82l-3.2 3.25 -3.49 2.73zm-1518.6 -1207.91l-140.07 140.06c-24.78,25.86 -26.07,67.13 0.16,93.37 26.54,26.54 67.76,26.78 94.3,0.12l197.53 -198.48 195.45 1404.76c4.43,35.41 38.65,61.15 73.9,56.2 37.03,-5.2 61.58,-38.65 56.99,-75.05l-165.65 -1190.68 36.4 -25.44c5.85,-4.09 11.44,-8.88 15.73,-14.62l170.37 -228.6c21.96,-29.47 16.16,-71.52 -12.88,-93.4l-116.79 -85.68 958.98 -959.74c25.59,-25.6 25.12,-66.99 -0.06,-92.7 -25.52,-26.07 -67.56,-26.79 -93.13,-0.45l-1025.1 1025.11 -43.83 -319.83c-5.23,-34.63 -37.51,-61.47 -73.32,-56.05l-1.57 0.22c-23.82,3.07 -43.32,18.74 -51.9,41.04l-34.4 89.35 -734.83 -549.48c-29.3,-20.62 -70.67,-16.19 -93.1,13.84l-170.86 228.73c-20.32,28.35 -16.61,70.04 13.07,91.3l944.61 706.1zm297.01 56.78l-1110.42 -829.48 94.6 -120.5 1110.42 829.48 -94.6 120.5z"/>
 </g>
</svg>
