<?xml version="1.0" encoding="UTF-8"?>
<!DOCTYPE svg PUBLIC "-//W3C//DTD SVG 1.1//EN" "http://www.w3.org/Graphics/SVG/1.1/DTD/svg11.dtd">
<!-- Creator: CorelDRAW 2021 (64-Bit) -->
<svg xmlns="http://www.w3.org/2000/svg" xml:space="preserve" width="50mm" height="50mm" version="1.1" style="shape-rendering:geometricPrecision; text-rendering:geometricPrecision; image-rendering:optimizeQuality; fill-rule:evenodd; clip-rule:evenodd"
viewBox="0 0 5000 5000"
 xmlns:xlink="http://www.w3.org/1999/xlink"
 xmlns:xodm="http://www.corel.com/coreldraw/odm/2003">
 <defs>
  <style type="text/css">
   <![CDATA[
    .fil0 {fill:black}
   ]]>
  </style>
 </defs>
 <g id="Layer_x0020_1">
  <metadata id="CorelCorpID_0Corel-Layer"/>
  <path class="fil0" d="M691.92 4309.05l-383.81 0c-43.83,0 -78.57,36.36 -78.57,79.84l0 465.94c0,43.12 35.38,78.82 78.57,78.82l4372.55 0c43.19,0 78.56,-35.7 78.56,-78.82l0 -465.94c0,-43.48 -34.73,-79.84 -78.56,-79.84l-383.81 0 0 -1774.39 382.79 0c43.82,0 78.57,-35.06 78.57,-78.82l0 -365.06c0,-22.53 -8.96,-44.15 -26.4,-58.69l-1.48 -1.26 -2196.66 -1933.04c-29.41,-25.28 -74.27,-26.08 -103.51,0.62l-2170.42 1926.33 -2.12 1.61c-19.03,14.55 -29.1,37.03 -29.1,60.86l0 368.63c0,43.76 34.75,78.82 78.57,78.82l384.83 0 0 1774.39zm158.41 0l0 -1853.21c0,-43.06 -35.84,-78.57 -78.83,-78.57l-385.59 0 0 -255.14 2096.3 -1860.42 2118.61 1864.83 0 250.73 -382.79 0c-43.29,0 -78.57,35.28 -78.57,78.57l0 1853.21 -921.22 0 0 -1753.35c0,-43.39 -36.69,-77.8 -79.59,-77.8l-1291.84 0c-43.14,0 -78.82,34.38 -78.82,77.8l0 1753.35 -917.66 0zm1075.04 0l0 -1673.76 1134.46 0 0 1673.76 -1134.46 0zm-1538.44 158.41l4214.9 0 0 307.78 -4214.9 0 0 -307.78z"/>
 </g>
</svg>
