<svg width="5000" height="5000" xmlns="http://www.w3.org/2000/svg" xml:space="preserve" version="1.1" clip-rule="evenodd">
 <g>
  <title>Layer 1</title>
  <g id="Layer_x0020_1">
   <metadata fill="#5fbf00" id="CorelCorpID_0Corel-Layer"/>
   <path class="fil0" d="m4837.62,3911.39l-398.76,0c-36.24,178.25 -194.06,312.96 -382.76,312.96c-188.65,0 -346.45,-134.71 -382.76,-312.96l-1602.34,0c-36.24,178.25 -194.04,312.96 -382.69,312.96c-188.7,0 -346.52,-134.71 -382.76,-312.96l-172.02,0c-36.29,178.25 -194.17,312.96 -382.74,312.96c-188.64,0 -346.45,-134.71 -382.69,-312.96l-217.99,0c-86.13,0 -156.25,-70.24 -156.25,-156.42l0,-480.23c0,-86.18 70.12,-156.45 156.25,-156.45l3046.62,0l0,-1146.15c0,-43.21 35,-78.22 78.17,-78.22l811.03,0c414.33,0 751.44,337.43 751.44,752.2l0,472.17l0.25,0c86.2,0 156.25,70.27 156.25,156.45l0,480.23c0,86.18 -70.05,156.42 -156.25,156.42zm-1015.8,-77.21c0.55,128.92 105.3,233.66 234.28,233.66c129.22,0 234.35,-105.18 234.35,-234.6c0,-129.34 -105.13,-234.67 -234.35,-234.67c-128.85,0 -233.73,104.76 -234.28,233.61c0,0.37 0.18,0.62 0.18,1.01c0,0.37 -0.18,0.62 -0.18,0.99zm-2367.93,-0.62c0.2,129.28 105.25,234.28 234.42,234.28c129.22,0 234.35,-105.18 234.35,-234.6c0,-129.34 -105.13,-234.67 -234.35,-234.67c-129.1,0 -234.1,105.01 -234.42,234.23c0,0.12 0.13,0.27 0.13,0.39c0,0.05 -0.13,0.25 -0.13,0.37zm-937.45,0c0.18,129.28 105.25,234.28 234.35,234.28c129.28,0 234.4,-105.18 234.4,-234.6c0,-129.34 -105.12,-234.67 -234.4,-234.67c-129.1,0 -234.05,105.01 -234.35,234.23c0,0.12 0.12,0.27 0.12,0.39c0,0.05 -0.12,0.25 -0.12,0.37zm4164.61,-1187.44c0,-328.52 -266.92,-595.75 -595.12,-595.75l-733,0l0,1067.92l1328.12,0l0,-472.17zm156.57,628.62l-4687.51,0l0,480.23l217.99,0c36.29,-178.18 194.05,-312.77 382.69,-312.77c188.57,0 346.45,134.59 382.69,312.77l172.07,0c36.31,-178.18 194.19,-312.77 382.76,-312.77c188.51,0 346.38,134.59 382.69,312.77l1602.34,0c36.38,-178.18 194.18,-312.77 382.76,-312.77c188.57,0 346.39,134.59 382.76,312.77l398.76,0l0,-480.23zm-742.42,636.72l-78.2,0c-43.17,0 -78.17,-34.93 -78.17,-78.22c0,-43.21 35,-78.22 78.17,-78.22l78.2,0c43.16,0 78.17,35.01 78.17,78.22c0,43.29 -35.01,78.22 -78.17,78.22zm-2367.72,0l-78.34,0c-43.16,0 -78.1,-34.93 -78.1,-78.22c0,-43.21 34.94,-78.22 78.1,-78.22l78.34,0c43.17,0 78.16,35.01 78.16,78.22c0,43.29 -34.99,78.22 -78.16,78.22zm-937.52,0l-78.34,0c-43.04,0 -78.17,-34.93 -78.17,-78.22c0,-43.21 35.13,-78.22 78.17,-78.22l78.34,0c43.1,0 78.1,35.01 78.1,78.22c0,43.29 -35,78.22 -78.1,78.22zm678.32,-949.54l-1105.48,0c-43.16,0 -78.1,-34.94 -78.1,-78.22l0,-1052.92c0,-43.29 34.94,-78.23 78.1,-78.23l1105.48,0c43.16,0 78.1,34.94 78.1,78.23l0,1052.92c0,43.28 -34.94,78.22 -78.1,78.22zm-455.12,-1052.92l-195.23,0l0,158.37l65.88,-29.34c20.25,-9.02 43.21,-9.02 63.46,0l65.89,29.34l0,-158.37zm376.97,0l-220.72,0l0,278.75c0,26.53 -13.31,51.12 -35.49,65.58c-22.12,14.26 -49.96,16.75 -74.3,5.91l-144.05,-64.03l-144.11,64.03c-24.22,10.72 -52.13,8.48 -74.3,-5.91c-22.17,-14.46 -35.5,-39.05 -35.5,-65.58l0,-278.75l-220.71,0l0,896.48l949.18,0l0,-896.48zm1482.27,1052.92l-1105.5,0c-43.16,0 -78.09,-34.94 -78.09,-78.22l0,-1052.92c0,-43.29 34.93,-78.23 78.09,-78.23l1105.5,0c43.14,0 78.08,34.94 78.08,78.23l0,1052.92c0,43.28 -34.94,78.22 -78.08,78.22zm-455,-1052.92l-195.37,0l0,158.37l65.88,-29.34c20.25,-9.02 43.36,-9.02 63.47,0l66.02,29.34l0,-158.37zm376.95,0l-220.82,0l0,278.75c0,26.53 -13.33,51.12 -35.51,65.58c-22.1,14.26 -49.94,16.75 -74.3,5.91l-144.03,-64.03l-144.13,64.03c-24.02,10.72 -52.13,8.48 -74.28,-5.91c-22.05,-14.46 -35.5,-39.05 -35.5,-65.58l0,-278.75l-220.72,0l0,896.48l949.29,0l0,-896.48zm-1326.07,-318.74l-1105.48,0c-43.16,0 -78.1,-34.93 -78.1,-78.22l0,-1052.87c0,-43.21 34.94,-78.22 78.1,-78.22l1105.48,0c43.16,0 78.1,35.01 78.1,78.22l0,1052.87c0,43.29 -34.94,78.22 -78.1,78.22zm-455.12,-1052.86l-195.23,0l0,158.36l65.88,-29.32c20.25,-8.97 43.21,-8.97 63.46,0l65.89,29.32l0,-158.36zm376.97,0l-220.72,0l0,278.74c0,26.54 -13.31,51.2 -35.49,65.66c-22.12,14.26 -49.96,16.68 -74.3,5.91l-144.05,-64.15l-144.11,64.15c-24.22,10.72 -52.13,8.4 -74.3,-5.91c-22.17,-14.46 -35.5,-39.12 -35.5,-65.66l0,-278.74l-220.71,0l0,896.42l949.18,0l0,-896.42zm1482.27,1052.86l-1105.5,0c-43.16,0 -78.09,-34.93 -78.09,-78.22l0,-1052.87c0,-43.21 34.93,-78.22 78.09,-78.22l1105.5,0c43.14,0 78.08,35.01 78.08,78.22l0,1052.87c0,43.29 -34.94,78.22 -78.08,78.22zm-455,-1052.86l-195.37,0l0,158.36l65.88,-29.32c20.25,-8.97 43.36,-8.97 63.47,0l66.02,29.32l0,-158.36zm376.95,0l-220.82,0l0,278.74c0,26.54 -13.33,51.2 -35.51,65.66c-22.1,14.26 -49.94,16.68 -74.3,5.91l-144.03,-64.15l-144.13,64.15c-24.02,10.72 -52.13,8.4 -74.28,-5.91c-22.05,-14.46 -35.5,-39.12 -35.5,-65.66l0,-278.74l-220.72,0l0,896.42l949.29,0l0,-896.42zm1652.42,2346.3l-859.44,0c-43.15,0 -78.15,-34.94 -78.15,-78.22l0,-520.59c0,-43.14 35,-78.15 78.15,-78.15l498.6,0c242.07,0 438.94,196.98 438.94,439.31l0,159.43c0,43.28 -34.94,78.22 -78.1,78.22zm-78.17,-237.65c0,-156.01 -126.86,-282.93 -282.67,-282.93l-420.43,0l0,364.13l703.1,0l0,-81.2zm-239.01,-1902.83l-583.36,0l72.36,72.43c30.45,30.52 30.45,80.02 0,110.54c-30.5,30.65 -80.02,30.65 -110.47,0l-205.7,-205.76c-30.52,-30.63 -30.52,-80.27 0,-110.8l205.7,-205.77c30.45,-30.5 79.97,-30.5 110.47,0c30.45,30.53 30.45,80.05 0,110.55l-72.36,72.38l583.36,0c43.16,0 78.1,34.94 78.1,78.2c0,43.24 -34.94,78.23 -78.1,78.23zm0,782.08l-583.36,0l72.36,72.43c30.45,30.53 30.45,80.03 0,110.55c-30.5,30.63 -80.02,30.63 -110.47,0l-205.7,-205.77c-30.21,-30.13 -30.89,-79.85 0,-110.72l205.7,-205.84c30.45,-30.51 79.97,-30.51 110.47,0c30.45,30.52 30.45,80.04 0,110.67l-72.36,72.31l583.36,0c43.16,0 78.1,35 78.1,78.15c0,43.23 -34.94,78.22 -78.1,78.22zm-3212.2,3106.04l-468.84,0c-43.03,0 -78.03,-34.96 -78.03,-78.23c0,-43.23 35,-78.22 78.03,-78.22l468.84,0c43.14,0 78.15,34.99 78.15,78.22c0,43.27 -35.01,78.23 -78.15,78.23zm905.37,0l-468.7,0c-43.14,0 -78.15,-34.96 -78.15,-78.23c0,-43.23 35.01,-78.22 78.15,-78.22l468.7,0c43.16,0 78.17,34.99 78.17,78.22c0,43.27 -35.01,78.23 -78.17,78.23zm905.52,0l-468.76,0c-43.16,0 -78.09,-34.96 -78.09,-78.23c0,-43.23 34.93,-78.22 78.09,-78.22l468.76,0c43.16,0 78.17,34.99 78.17,78.22c0,43.27 -35.01,78.23 -78.17,78.23zm905.39,0l-468.75,0c-43.17,0 -78.1,-34.96 -78.1,-78.23c0,-43.23 34.93,-78.22 78.1,-78.22l468.75,0c43.16,0 78.15,34.99 78.15,78.22c0,43.27 -34.99,78.23 -78.15,78.23zm905.44,0l-468.7,0c-43.14,0 -78.15,-34.96 -78.15,-78.23c0,-43.23 35.01,-78.22 78.15,-78.22l468.7,0c43.17,0 78.17,34.99 78.17,78.22c0,43.27 -35,78.23 -78.17,78.23z" fill="#5fbf00" fill-rule="nonzero" id="svg_1"/>
  </g>
 </g>

</svg>